<svg width="28" height="28" viewBox="0 0 28 28" fill="none" xmlns="http://www.w3.org/2000/svg">
<path d="M14 26.1375C7.34469 26.1375 1.93103 20.7238 1.93103 14.0685C1.93103 7.41323 7.34469 1.99957 14 1.99957C20.6553 1.99957 26.069 7.41323 26.069 14.0685C26.069 20.7238 20.6553 26.1375 14 26.1375ZM14 3.93061C8.40966 3.93061 3.86207 8.47819 3.86207 14.0685C3.86207 19.6589 8.40966 24.2065 14 24.2065C19.5903 24.2065 24.1379 19.6579 24.1379 14.0685C24.1379 8.47916 19.5903 3.93061 14 3.93061Z" fill="url(#paint0_linear_53_3)"/>
<path d="M14 20.8272C13.7439 20.8272 13.4983 20.7255 13.3173 20.5444C13.1362 20.3633 13.0345 20.1177 13.0345 19.8617V8.27545C13.0345 8.01938 13.1362 7.7738 13.3173 7.59273C13.4983 7.41166 13.7439 7.30994 14 7.30994C14.2561 7.30994 14.5017 7.41166 14.6827 7.59273C14.8638 7.7738 14.9655 8.01938 14.9655 8.27545V19.8617C14.9655 20.1177 14.8638 20.3633 14.6827 20.5444C14.5017 20.7255 14.2561 20.8272 14 20.8272Z" fill="url(#paint1_linear_53_3)"/>
<path d="M19.7931 15.0341H8.2069C7.95082 15.0341 7.70524 14.9323 7.52417 14.7513C7.3431 14.5702 7.24138 14.3246 7.24138 14.0685C7.24138 13.8125 7.3431 13.5669 7.52417 13.3858C7.70524 13.2048 7.95082 13.103 8.2069 13.103H19.7931C20.0492 13.103 20.2948 13.2048 20.4758 13.3858C20.6569 13.5669 20.7586 13.8125 20.7586 14.0685C20.7586 14.3246 20.6569 14.5702 20.4758 14.7513C20.2948 14.9323 20.0492 15.0341 19.7931 15.0341Z" fill="url(#paint2_linear_53_3)"/>
<defs>
<linearGradient id="paint0_linear_53_3" x1="14" y1="1.99957" x2="14" y2="26.1375" gradientUnits="userSpaceOnUse">
<stop stop-color="#7183E4"/>
<stop offset="1" stop-color="#C66573"/>
</linearGradient>
<linearGradient id="paint1_linear_53_3" x1="14" y1="7.30994" x2="14" y2="20.8272" gradientUnits="userSpaceOnUse">
<stop stop-color="#7183E4"/>
<stop offset="1" stop-color="#C66573"/>
</linearGradient>
<linearGradient id="paint2_linear_53_3" x1="14" y1="13.103" x2="14" y2="15.0341" gradientUnits="userSpaceOnUse">
<stop stop-color="#7183E4"/>
<stop offset="1" stop-color="#C66573"/>
</linearGradient>
</defs>
</svg>
