<svg width="22" height="22" viewBox="0 0 22 22" fill="none" xmlns="http://www.w3.org/2000/svg">
<circle cx="11" cy="11" r="11" fill="#016341"/>
<path d="M15.5769 9.9359H11.3462V5.70513C11.3462 5.51812 11.2719 5.33876 11.1396 5.20653C11.0074 5.07429 10.828 5 10.641 5C10.454 5 10.2747 5.07429 10.1424 5.20653C10.0102 5.33876 9.9359 5.51812 9.9359 5.70513V9.9359H5.70513C5.51812 9.9359 5.33876 10.0102 5.20653 10.1424C5.07429 10.2747 5 10.454 5 10.641C5 10.828 5.07429 11.0074 5.20653 11.1396C5.33876 11.2719 5.51812 11.3462 5.70513 11.3462H9.9359V15.5769C9.9359 15.7639 10.0102 15.9433 10.1424 16.0755C10.2747 16.2078 10.454 16.2821 10.641 16.2821C10.828 16.2821 11.0074 16.2078 11.1396 16.0755C11.2719 15.9433 11.3462 15.7639 11.3462 15.5769V11.3462H15.5769C15.7639 11.3462 15.9433 11.2719 16.0755 11.1396C16.2078 11.0074 16.2821 10.828 16.2821 10.641C16.2821 10.454 16.2078 10.2747 16.0755 10.1424C15.9433 10.0102 15.7639 9.9359 15.5769 9.9359Z" fill="white"/>
</svg>
