<svg width="48" height="32" viewBox="0 0 48 32" fill="none" xmlns="http://www.w3.org/2000/svg">
<path opacity="0.3" d="M30 26L44 19L18 6L4 13L30 26Z" fill="#016341"/>
<path d="M31.3 22L42.8 16.2L17.8 3.7L6.3 9.2L20.7 16.5L21.3 17L31.3 22Z" fill="#342D2D"/>
<path d="M27.1 16.7C26.3 16.3 25.6 16.3 25.1 16.5L24 17.1C23.4 17.4 23.1 17.9 23.1 18.8C23.1 20.4 24.4 22.4 26 23.2C26.8 23.6 27.5 23.6 28.1 23.4C28.1 23.4 29.2 22.8 29.3 22.7C29.8 22.4 30.1 21.9 30.1 21.1C30 19.5 28.7 17.5 27.1 16.7Z" fill="#342D2D"/>
<path opacity="0.39" d="M28 23.3C28.2 23.2 29.1 22.7 29.2 22.7C29.7 22.4 30 21.9 30 21.1C30 20.4 29.8 19.7 29.4 19.1L28.3 19.7C28.7 20.4 28.9 21.1 28.9 21.7C28.9 22.5 28.6 23.1 28 23.3Z" fill="black"/>
<path d="M25.9 18C24.7 17.4 23.7 17.9 23.7 19.1C23.7 20.3 24.7 21.8 25.9 22.4C27.1 23 28.1 22.5 28.1 21.3C28.2 20.1 27.2 18.6 25.9 18ZM27.4 19.5C27.6 19.8 27.7 20.1 27.5 20.2C27.4 20.3 26.7 20.2 26.4 20.1C26.4 20 26.3 20 26.3 19.9C26.4 19.6 26.6 19.1 26.8 19C26.9 18.9 27.2 19.2 27.4 19.5ZM25.9 18.2C26.2 18.4 26.5 18.6 26.5 18.8C26.5 19 26.2 19.5 26 19.7C26 19.7 25.9 19.7 25.9 19.6C25.9 19.5 25.8 19.6 25.8 19.6C25.6 19.2 25.3 18.5 25.3 18.3C25.4 18 25.6 18 25.9 18.2ZM24.5 18.1C24.7 18 25 18 25.2 18.3C25.3 18.5 25.6 19.3 25.7 19.6C25.6 19.6 25.6 19.6 25.6 19.7C25.3 19.4 24.6 18.9 24.5 18.7C24.2 18.3 24.3 18.2 24.5 18.1ZM23.9 19.2C23.9 18.9 24 18.7 24.3 18.8C24.5 18.9 25.1 19.5 25.4 19.8V20C25.1 20 24.5 20 24.3 19.9C24 19.8 23.9 19.5 23.9 19.2ZM24.5 20.9C24.3 20.6 24.2 20.3 24.4 20.2C24.5 20.1 25.2 20.2 25.5 20.3C25.5 20.4 25.6 20.4 25.6 20.5C25.5 20.8 25.3 21.3 25.1 21.4C25 21.5 24.7 21.2 24.5 20.9ZM25.9 22.2C25.6 22 25.3 21.8 25.3 21.6C25.3 21.4 25.6 20.9 25.8 20.7C25.8 20.7 25.9 20.7 25.9 20.8H26C26.2 21.2 26.5 21.9 26.5 22.1C26.5 22.4 26.3 22.4 25.9 22.2ZM27.4 22.4C27.2 22.5 26.9 22.5 26.7 22.2C26.6 22 26.3 21.2 26.2 20.9C26.3 20.9 26.3 20.9 26.3 20.8C26.6 21.1 27.3 21.6 27.4 21.8C27.7 22.1 27.6 22.2 27.4 22.4ZM27.6 21.6C27.4 21.5 26.8 20.9 26.5 20.6V20.4C26.8 20.4 27.4 20.4 27.6 20.5C27.9 20.6 28 20.9 28 21.2C28 21.5 27.9 21.7 27.6 21.6Z" fill="#D9D9D9"/>
<path opacity="0.06" d="M26.1 22.3C24.9 21.7 23.9 20.2 23.9 19C23.9 18.4 24.1 18 24.5 17.8C24 18 23.7 18.4 23.7 19.1C23.7 20.3 24.7 21.8 25.9 22.4C26.5 22.7 27.1 22.7 27.5 22.5C27.1 22.7 26.7 22.6 26.1 22.3Z" fill="black"/>
<path opacity="0.06" d="M28.9 21.7C28.9 23.3 27.6 24 26 23.2C24.4 22.4 23 20.4 23 18.7C23 17 24.3 16.4 25.9 17.2C27.6 18.1 28.9 20.1 28.9 21.7Z" fill="black"/>
<path d="M12.1 9.19999C11.3 8.79999 10.6 8.79999 10.1 8.99999L8.9 9.59999C8.4 9.79999 8 10.4 8 11.2C8 12.8 9.3 14.8 10.9 15.6C11.7 16 12.4 16 13 15.8C13 15.8 14.1 15.2 14.2 15.1C14.7 14.8 15 14.3 15 13.5C15 12 13.7 9.99999 12.1 9.19999Z" fill="#342D2D"/>
<path opacity="0.39" d="M13 15.8C13.2 15.7 14.1 15.2 14.2 15.2C14.7 14.9 15 14.4 15 13.6C15 12.9 14.8 12.2 14.4 11.6L13.3 12.2C13.7 12.9 13.9 13.6 13.9 14.2C13.9 15 13.6 15.6 13 15.8Z" fill="black"/>
<path d="M10.9 10.5C9.7 9.9 8.7 10.4 8.7 11.6C8.7 12.8 9.7 14.3 10.9 14.9C12.1 15.5 13.1 15 13.1 13.8C13.2 12.6 12.2 11.1 10.9 10.5ZM12.4 12C12.6 12.3 12.7 12.6 12.5 12.7C12.4 12.8 11.7 12.7 11.4 12.6C11.4 12.5 11.3 12.5 11.3 12.4C11.4 12.1 11.6 11.6 11.8 11.5C11.9 11.4 12.2 11.7 12.4 12ZM10.9 10.7C11.2 10.9 11.5 11.1 11.5 11.3C11.5 11.5 11.2 12 11 12.2C11 12.2 10.9 12.2 10.9 12.1H10.8C10.6 11.7 10.3 11 10.3 10.8C10.4 10.5 10.6 10.5 10.9 10.7ZM9.5 10.6C9.7 10.5 10 10.5 10.2 10.8C10.3 11 10.6 11.8 10.7 12.1C10.6 12.1 10.6 12.1 10.6 12.2C10.3 11.9 9.6 11.4 9.5 11.2C9.2 10.8 9.3 10.7 9.5 10.6ZM8.9 11.7C8.9 11.4 9 11.2 9.3 11.3C9.5 11.4 10.1 12 10.4 12.3V12.5C10.1 12.5 9.5 12.5 9.3 12.4C9 12.3 8.9 12 8.9 11.7ZM9.5 13.4C9.3 13.1 9.2 12.8 9.4 12.7C9.5 12.6 10.2 12.7 10.5 12.8C10.5 12.9 10.6 12.9 10.6 13C10.5 13.3 10.3 13.8 10.1 13.9C10 14 9.7 13.7 9.5 13.4ZM10.9 14.7C10.6 14.5 10.3 14.3 10.3 14.1C10.3 13.9 10.6 13.4 10.8 13.2C10.8 13.2 10.9 13.2 10.9 13.3H11C11.2 13.7 11.5 14.4 11.5 14.6C11.5 14.9 11.3 14.9 10.9 14.7ZM12.4 14.9C12.2 15 11.9 15 11.7 14.7C11.6 14.5 11.3 13.7 11.2 13.4C11.3 13.4 11.3 13.4 11.3 13.3C11.6 13.6 12.3 14.1 12.4 14.3C12.7 14.6 12.6 14.7 12.4 14.9ZM12.6 14.1C12.4 14 11.8 13.4 11.5 13.1V12.9C11.8 12.9 12.4 12.9 12.6 13C12.9 13.1 13 13.4 13 13.7C13 14 12.9 14.2 12.6 14.1Z" fill="#D9D9D9"/>
<path opacity="0.06" d="M11.1 14.8C9.9 14.2 8.9 12.7 8.9 11.5C8.9 10.9 9.1 10.5 9.5 10.3C9 10.5 8.7 10.9 8.7 11.6C8.7 12.8 9.7 14.3 10.9 14.9C11.5 15.2 12.1 15.2 12.5 15C12.1 15.2 11.7 15.1 11.1 14.8Z" fill="black"/>
<path opacity="0.06" d="M13.9 14.2C13.9 15.8 12.6 16.5 11 15.7C9.3 14.8 8 12.9 8 11.2C8 9.5 9.3 8.9 10.9 9.7C12.6 10.6 13.9 12.6 13.9 14.2Z" fill="black"/>
<path d="M39.8 11.2L36 6L28 2L20.7 1.7L14.4 0.199997L5.39999 4.7V8.7L7.39999 10C7.99999 8.8 9.29999 8.4 10.9 9.2C12.7 10.1 14.1 12.1 14.4 13.9L22.4 18C22.6 16.3 24.1 15.7 25.9 16.6C27.7 17.5 29.2 19.6 29.4 21.5H29.7L32.5 22.8L43 17.5V13.5L39.8 11.2Z" fill="#016341"/>
<path d="M26.7 11.2L36.1 6.60001L39.3 11L29.9 15.6L26.7 11.2Z" fill="#14141C"/>
<path opacity="0.15" d="M30.2 9.50001L36.1 6.60001L39.3 11L30.2 9.50001Z" fill="black"/>
<path d="M12.7 6.30001L21.3 2.10001L26.4 2.20001L17.9 6.50001L12.7 6.30001Z" fill="#14141C"/>
<path opacity="0.39" d="M12.7 6.3L22.9 4L17.9 6.5L12.7 6.3Z" fill="white"/>
<path d="M13.3 6.20001L21.6 2.10001H21.3L12.7 6.30001L13.3 6.20001Z" fill="#342D2D"/>
<path d="M43 14L41.5 14.7V15.7L43 15V14ZM32.5 19.2L34.5 18.2V19.2L32.5 20.2L32 20V19L32.5 19.2Z" fill="#FF0F00"/>
<path d="M35.5 18.2L40.5 15.7V17L35.5 19.5V18.2Z" fill="white"/>
<path d="M6 5.5L5.5 5.2V7L6 7.2V5.5Z" fill="#FB8500"/>
<path d="M22.3 12.7L27.8 15.5L25 11L22.3 9.6V12.7ZM21.5 9.2L18 7.5H11.8L21.5 12.4V9.2Z" fill="#14141C"/>
<path opacity="0.15" d="M22.8 12.7V9.9L22.3 9.6V12.7L27.8 15.5L27.5 15.1L22.8 12.7ZM12.3 7.5H11.8L21.5 12.4V12.1L12.3 7.5Z" fill="black"/>
<path opacity="0.06" d="M29.8 16.2L26 11L18 7L10.7 6.7L5.39999 4.7V8.7L7.39999 10C7.99999 8.8 9.29999 8.4 10.9 9.2C12.7 10.1 14.1 12.1 14.4 13.9L21.6 17.6L22.4 18C22.6 16.3 24.1 15.7 25.9 16.6C27.7 17.5 29.2 19.6 29.4 21.5H29.7L32.5 22.8V18.8L29.8 16.2Z" fill="black"/>
<path d="M32.3 23.2L43.8 17.5V16L32.3 21.7L31.3 21.2V22.7L32.3 23.2Z" fill="#016341"/>
<path opacity="0.39" d="M32.3 23.2L43.8 17.5V16L32.3 21.7L31.3 21.2V22.7L32.3 23.2Z" fill="black"/>
<path d="M32.3 21.2L43.3 15.7L43.8 16L32.3 21.7L31.3 21.2L31.8 21L32.3 21.2ZM5.3 8L6.3 8.5V9.5L5.3 9V8Z" fill="#016341"/>
<path opacity="0.39" d="M5.3 8L6.3 8.5V9.5L5.3 9V8Z" fill="black"/>
<path d="M6.3 8.5V9.5L6.5 9.2V8.2L5.5 7.7L5.3 8L6.3 8.5Z" fill="#016341"/>
<path opacity="0.39" d="M39.8 11.2L29.8 16.2L26 11L36 6L39.8 11.2Z" fill="black"/>
<path d="M13.3 7.4L12.3 7.8C12.1 8 12 8.1 12 8.3C12 8.5 12.2 8.7 12.4 8.7H14.2L13.9 7.7C13.8 7.5 13.5 7.3 13.3 7.4Z" fill="#016341"/>
<path opacity="0.39" d="M13.3 7.4L12.3 7.8C12.1 8 12 8.1 12 8.3C12 8.5 12.2 8.7 12.4 8.7H14.2L13.9 7.7C13.8 7.5 13.5 7.3 13.3 7.4Z" fill="black"/>
<path d="M12.4 8.5C12.3 8.5 12.2 8.4 12.2 8.3C12.2 8.2 12.2 8.1 12.3 8.1L13.3 7.7H13.4C13.5 7.7 13.6 7.8 13.6 7.8L13.8 8.5H12.4Z" fill="#342D2D"/>
<path opacity="0.39" d="M43 13.5L32.5 18.7V21.1L43 15.8V13.5Z" fill="black"/>
</svg>
