<svg width="29" height="18" viewBox="0 0 29 18" fill="none" xmlns="http://www.w3.org/2000/svg">
<path d="M17.6084 2.00928H2.5791C1.96425 2.00928 1.46582 2.47859 1.46582 3.05752V10.9543C1.46582 11.5332 1.96425 12.0025 2.5791 12.0025H17.6084C18.2232 12.0025 18.7217 11.5332 18.7217 10.9543V3.05752C18.7217 2.47859 18.2232 2.00928 17.6084 2.00928Z" fill="#E81515"/>
<path d="M17.6084 2.00928H16.4951C16.7904 2.00928 17.0735 2.11972 17.2823 2.3163C17.4911 2.51288 17.6084 2.77951 17.6084 3.05752V10.9543C17.6084 11.2323 17.4911 11.4989 17.2823 11.6955C17.0735 11.8921 16.7904 12.0025 16.4951 12.0025H17.6084C17.9037 12.0025 18.1868 11.8921 18.3956 11.6955C18.6044 11.4989 18.7217 11.2323 18.7217 10.9543V3.05752C18.7217 2.77951 18.6044 2.51288 18.3956 2.3163C18.1868 2.11972 17.9037 2.00928 17.6084 2.00928Z" fill="#BE0000"/>
<path d="M18.7217 3.82617H1.46582V6.06242H18.7217V3.82617Z" fill="#57565C"/>
<path d="M18.7217 3.82617H17.6084V6.06242H18.7217V3.82617Z" fill="#3C3B41"/>
<path d="M16.4209 5.36328H1.3916C0.776753 5.36328 0.27832 5.8326 0.27832 6.41152V14.3083C0.27832 14.8872 0.776753 15.3565 1.3916 15.3565H16.4209C17.0357 15.3565 17.5342 14.8872 17.5342 14.3083V6.41152C17.5342 5.8326 17.0357 5.36328 16.4209 5.36328Z" fill="#E81515"/>
<path d="M16.4209 5.36328H15.3076C15.6029 5.36328 15.886 5.47372 16.0948 5.6703C16.3036 5.86689 16.4209 6.13351 16.4209 6.41152V14.3083C16.4209 14.5863 16.3036 14.8529 16.0948 15.0495C15.886 15.2461 15.6029 15.3565 15.3076 15.3565H16.4209C16.7162 15.3565 16.9993 15.2461 17.2081 15.0495C17.4169 14.8529 17.5342 14.5863 17.5342 14.3083V6.41152C17.5342 6.13351 17.4169 5.86689 17.2081 5.6703C16.9993 5.47372 16.7162 5.36328 16.4209 5.36328Z" fill="#BE0000"/>
<path d="M15.3818 6.93604H11.2627C11.0577 6.93604 10.8916 7.09247 10.8916 7.28545V7.70475C10.8916 7.89772 11.0577 8.05416 11.2627 8.05416H15.3818C15.5868 8.05416 15.7529 7.89772 15.7529 7.70475V7.28545C15.7529 7.09247 15.5868 6.93604 15.3818 6.93604Z" fill="white"/>
<path d="M15.3818 6.93604H14.2686C14.367 6.93604 14.4614 6.97285 14.531 7.03838C14.6006 7.1039 14.6396 7.19278 14.6396 7.28545V7.70475C14.6396 7.79742 14.6006 7.88629 14.531 7.95182C14.4614 8.01735 14.367 8.05416 14.2686 8.05416H15.3818C15.4803 8.05416 15.5746 8.01735 15.6442 7.95182C15.7138 7.88629 15.7529 7.79742 15.7529 7.70475V7.28545C15.7529 7.19278 15.7138 7.1039 15.6442 7.03838C15.5746 6.97285 15.4803 6.93604 15.3818 6.93604Z" fill="#E1E1E3"/>
<path d="M4.28613 6.93604H2.43066C2.22571 6.93604 2.05957 7.09247 2.05957 7.28545V8.36863C2.05957 8.56161 2.22571 8.71805 2.43066 8.71805H4.28613C4.49108 8.71805 4.65723 8.56161 4.65723 8.36863V7.28545C4.65723 7.09247 4.49108 6.93604 4.28613 6.93604Z" fill="#F8BE32"/>
<path d="M4.28619 6.93604H3.49316C3.59158 6.93604 3.68597 6.97285 3.75557 7.03838C3.82516 7.1039 3.86426 7.19278 3.86426 7.28545V8.36863C3.86426 8.4613 3.82516 8.55018 3.75557 8.61571C3.68597 8.68123 3.59158 8.71805 3.49316 8.71805H4.28619C4.38461 8.71805 4.479 8.68123 4.54859 8.61571C4.61819 8.55018 4.65729 8.4613 4.65729 8.36863V7.28545C4.65729 7.19278 4.61819 7.1039 4.54859 7.03838C4.479 6.97285 4.38461 6.93604 4.28619 6.93604Z" fill="#FED030"/>
<path d="M7.87015 12.9982H2.05994C1.98612 12.9982 1.91533 12.9706 1.86313 12.9215C1.81094 12.8723 1.78162 12.8057 1.78162 12.7362C1.78162 12.6667 1.81094 12.6 1.86313 12.5509C1.91533 12.5017 1.98612 12.4741 2.05994 12.4741H7.87015C7.94397 12.4741 8.01476 12.5017 8.06695 12.5509C8.11915 12.6 8.14847 12.6667 8.14847 12.7362C8.14847 12.8057 8.11915 12.8723 8.06695 12.9215C8.01476 12.9706 7.94397 12.9982 7.87015 12.9982ZM5.25097 14.0465H2.07255C1.99874 14.0465 1.92795 14.0189 1.87575 13.9697C1.82356 13.9206 1.79423 13.8539 1.79423 13.7844C1.79423 13.7149 1.82356 13.6483 1.87575 13.5991C1.92795 13.55 1.99874 13.5224 2.07255 13.5224H5.25097C5.32479 13.5224 5.39558 13.55 5.44777 13.5991C5.49997 13.6483 5.52929 13.7149 5.52929 13.7844C5.52929 13.8539 5.49997 13.9206 5.44777 13.9697C5.39558 14.0189 5.32479 14.0465 5.25097 14.0465Z" fill="white"/>
<path d="M14.918 14.0987C15.3791 14.0987 15.7529 13.7467 15.7529 13.3125C15.7529 12.8784 15.3791 12.5264 14.918 12.5264C14.4568 12.5264 14.083 12.8784 14.083 13.3125C14.083 13.7467 14.4568 14.0987 14.918 14.0987Z" fill="#F9A242"/>
<path d="M14.918 12.5264C14.8231 12.5264 14.729 12.5416 14.6396 12.5714C14.8024 12.6257 14.9432 12.7261 15.0428 12.8588C15.1425 12.9915 15.196 13.15 15.196 13.3125C15.196 13.4751 15.1425 13.6336 15.0428 13.7663C14.9432 13.899 14.8024 13.9994 14.6396 14.0537C14.7543 14.0919 14.8764 14.106 14.9975 14.0952C15.1186 14.0843 15.2357 14.0487 15.3406 13.9908C15.4455 13.9328 15.5358 13.854 15.605 13.7598C15.6742 13.6657 15.7207 13.5584 15.7412 13.4455C15.7618 13.3326 15.7559 13.2169 15.724 13.1064C15.6921 12.9959 15.635 12.8932 15.5566 12.8057C15.4782 12.7182 15.3804 12.6478 15.2701 12.5995C15.1598 12.5513 15.0396 12.5263 14.918 12.5264Z" fill="#F69531"/>
<path d="M13.8047 14.0987C14.2658 14.0987 14.6396 13.7467 14.6396 13.3125C14.6396 12.8784 14.2658 12.5264 13.8047 12.5264C13.3436 12.5264 12.9697 12.8784 12.9697 13.3125C12.9697 13.7467 13.3436 14.0987 13.8047 14.0987Z" fill="#F8BE32"/>
<path d="M13.8047 12.5264C13.7099 12.5264 13.6157 12.5416 13.5264 12.5714C13.6891 12.6257 13.8299 12.7261 13.9296 12.8588C14.0292 12.9915 14.0827 13.15 14.0827 13.3125C14.0827 13.4751 14.0292 13.6336 13.9296 13.7663C13.8299 13.899 13.6891 13.9994 13.5264 14.0537C13.641 14.0919 13.7632 14.106 13.8842 14.0952C14.0053 14.0843 14.1224 14.0487 14.2273 13.9908C14.3323 13.9328 14.4225 13.854 14.4917 13.7598C14.5609 13.6657 14.6074 13.5584 14.628 13.4455C14.6485 13.3326 14.6427 13.2169 14.6108 13.1064C14.5789 12.9959 14.5217 12.8932 14.4433 12.8057C14.3649 12.7182 14.2671 12.6478 14.1568 12.5995C14.0465 12.5513 13.9263 12.5263 13.8047 12.5264Z" fill="#FED030"/>
<path d="M4.48462 11.1813H2.07251C1.99869 11.1813 1.9279 11.1537 1.87571 11.1046C1.82351 11.0554 1.79419 10.9888 1.79419 10.9193C1.79419 10.8498 1.82351 10.7831 1.87571 10.734C1.9279 10.6848 1.99869 10.6572 2.07251 10.6572H4.48462C4.55843 10.6572 4.62923 10.6848 4.68142 10.734C4.73362 10.7831 4.76294 10.8498 4.76294 10.9193C4.76294 10.9888 4.73362 11.0554 4.68142 11.1046C4.62923 11.1537 4.55843 11.1813 4.48462 11.1813ZM8.24046 11.1813H5.82835C5.75453 11.1813 5.68374 11.1537 5.63155 11.1046C5.57935 11.0554 5.55003 10.9888 5.55003 10.9193C5.55003 10.8498 5.57935 10.7831 5.63155 10.734C5.68374 10.6848 5.75453 10.6572 5.82835 10.6572H8.24046C8.31427 10.6572 8.38507 10.6848 8.43726 10.734C8.48946 10.7831 8.51878 10.8498 8.51878 10.9193C8.51878 10.9888 8.48946 11.0554 8.43726 11.1046C8.38507 11.1537 8.31427 11.1813 8.24046 11.1813ZM11.9967 11.1813H9.58456C9.51075 11.1813 9.43995 11.1537 9.38776 11.1046C9.33556 11.0554 9.30624 10.9888 9.30624 10.9193C9.30624 10.8498 9.33556 10.7831 9.38776 10.734C9.43995 10.6848 9.51075 10.6572 9.58456 10.6572H11.9967C12.0705 10.6572 12.1413 10.6848 12.1935 10.734C12.2457 10.7831 12.275 10.8498 12.275 10.9193C12.275 10.9888 12.2457 11.0554 12.1935 11.1046C12.1413 11.1537 12.0705 11.1813 11.9967 11.1813ZM15.7529 11.1813H13.3408C13.267 11.1813 13.1962 11.1537 13.144 11.1046C13.0918 11.0554 13.0625 10.9888 13.0625 10.9193C13.0625 10.8498 13.0918 10.7831 13.144 10.734C13.1962 10.6848 13.267 10.6572 13.3408 10.6572H15.7529C15.8267 10.6572 15.8975 10.6848 15.9497 10.734C16.0019 10.7831 16.0312 10.8498 16.0312 10.9193C16.0312 10.9888 16.0019 11.0554 15.9497 11.1046C15.8975 11.1537 15.8267 11.1813 15.7529 11.1813Z" fill="white"/>
<path d="M26.9934 2.78951L12.4402 5.43896L14.0508 13.2823L28.604 10.6329L26.9934 2.78951Z" fill="#207E1E"/>
<path d="M26.075 4.937L11.3318 6.38086L12.2095 14.3266L26.9527 12.8828L26.075 4.937Z" fill="#53D86A"/>
<path d="M25.2186 7.11182H10.3959V15.1004H25.2186V7.11182Z" fill="#8ED89B"/>
<path d="M23.8542 12.8505C23.539 12.8512 23.237 12.9696 23.0144 13.1797C22.7917 13.3898 22.6667 13.6744 22.6667 13.9712H12.9502C12.9502 13.824 12.9194 13.6783 12.8595 13.5423C12.7997 13.4063 12.712 13.2827 12.6014 13.1786C12.4909 13.0745 12.3596 12.992 12.2151 12.9357C12.0707 12.8794 11.9159 12.8504 11.7595 12.8505V9.36232C11.9159 9.36232 12.0707 9.33332 12.2152 9.27698C12.3596 9.22064 12.4909 9.13806 12.6014 9.03395C12.712 8.92985 12.7997 8.80626 12.8596 8.67024C12.9194 8.53422 12.9502 8.38844 12.9502 8.24121H22.6667C22.6666 8.53806 22.7916 8.82283 23.0142 9.03301C23.2368 9.24319 23.5389 9.36163 23.8542 9.36232V12.8505Z" fill="#B1DFB9"/>
<path d="M17.8075 12.7876C18.7939 12.7876 19.5935 12.0347 19.5935 11.106C19.5935 10.1772 18.7939 9.42432 17.8075 9.42432C16.8211 9.42432 16.0215 10.1772 16.0215 11.106C16.0215 12.0347 16.8211 12.7876 17.8075 12.7876Z" fill="#8ED89B"/>
<path d="M26.3661 3.64205L27.8307 10.7742L28.6042 10.6333L26.9935 2.79004L12.4403 5.43962L12.5864 6.15075L26.3661 3.64205Z" fill="#53D86A"/>
<path d="M25.4475 5.78902L26.2387 12.9525L26.9524 12.8828L26.0749 4.93701L11.3317 6.38088L11.418 7.1632L25.4475 5.78902Z" fill="#8ED89B"/>
<path d="M10.3959 7.11182V7.86841H24.4084V15.1004H25.2186V7.11182H10.3959Z" fill="#B1DFB9"/>
<path d="M12.0853 9.31396C11.9796 9.34424 11.87 9.36042 11.7595 9.36204V9.81451C11.9135 9.67796 12.026 9.50516 12.0853 9.31396ZM22.1711 13.971H22.6667C22.6683 13.8636 22.6865 13.757 22.7205 13.6545C22.5098 13.7101 22.3197 13.8197 22.1711 13.971Z" fill="#8ED89B"/>
<path d="M22.6667 8.24121H12.9502C12.9497 8.52197 12.8366 8.79219 12.6335 8.99781H21.8565C21.8565 9.14502 21.8873 9.29078 21.9471 9.42678C22.0069 9.56278 22.0947 9.68634 22.2052 9.79042C22.3158 9.89449 22.4471 9.97704 22.5915 10.0333C22.736 10.0896 22.8908 10.1186 23.0471 10.1185V13.1543C23.2655 12.9602 23.554 12.8516 23.8542 12.8505V9.36232C23.539 9.36163 23.2369 9.24319 23.0142 9.03301C22.7916 8.82283 22.6666 8.53806 22.6667 8.24121Z" fill="#C1ECC8"/>
<path d="M17.8074 9.42458C17.4765 9.42542 17.1524 9.51304 16.8714 9.67762C16.5904 9.8422 16.3636 10.0772 16.2166 10.3564C16.4588 10.2421 16.7258 10.1819 16.9967 10.1804C17.2313 10.1804 17.4635 10.2239 17.6802 10.3084C17.8969 10.393 18.0938 10.5168 18.2596 10.673C18.4255 10.8291 18.557 11.0145 18.6468 11.2186C18.7365 11.4226 18.7827 11.6413 18.7827 11.8621C18.781 12.1228 18.7141 12.3794 18.5876 12.6112C18.9512 12.4459 19.2443 12.1691 19.4189 11.8262C19.5936 11.4834 19.6393 11.0949 19.5486 10.7243C19.4579 10.3538 19.2362 10.0233 18.9198 9.78705C18.6035 9.55075 18.2112 9.42268 17.8074 9.42384V9.42458Z" fill="#B1DFB9"/>
<path d="M25.2186 15.4728H10.3958C10.2909 15.4728 10.1902 15.4335 10.1159 15.3637C10.0417 15.2938 10 15.199 10 15.1001V7.11148C10 7.01263 10.0417 6.91783 10.1159 6.84793C10.1902 6.77804 10.2909 6.73877 10.3958 6.73877H25.2186C25.3236 6.73877 25.4243 6.77804 25.4985 6.84793C25.5727 6.91783 25.6144 7.01263 25.6144 7.11148V15.1001C25.6144 15.199 25.5727 15.2938 25.4985 15.3637C25.4243 15.4335 25.3236 15.4728 25.2186 15.4728ZM10.7917 14.7274H24.8228V7.48419H10.7917V14.7274Z" fill="black"/>
<path d="M22.6667 14.3436H12.9501C12.8452 14.3436 12.7445 14.3043 12.6703 14.2344C12.596 14.1645 12.5543 14.0697 12.5543 13.9709C12.554 13.7725 12.4701 13.5824 12.3211 13.4422C12.1721 13.3019 11.9702 13.2231 11.7595 13.2229C11.6545 13.2229 11.5538 13.1836 11.4796 13.1137C11.4054 13.0438 11.3636 12.949 11.3636 12.8502V9.36198C11.3636 9.26313 11.4054 9.16833 11.4796 9.09843C11.5538 9.02854 11.6545 8.98927 11.7595 8.98927C11.9702 8.98897 12.1722 8.91003 12.3212 8.76974C12.4702 8.62945 12.554 8.43927 12.5543 8.24087C12.5543 8.14202 12.596 8.04722 12.6703 7.97733C12.7445 7.90743 12.8452 7.86816 12.9501 7.86816H22.6667C22.7717 7.86816 22.8723 7.90743 22.9466 7.97733C23.0208 8.04722 23.0625 8.14202 23.0625 8.24087C23.0627 8.43878 23.1461 8.62858 23.2944 8.7688C23.4427 8.90903 23.644 8.98829 23.8542 8.98927C23.9592 8.98927 24.0598 9.02854 24.1341 9.09843C24.2083 9.16833 24.25 9.26313 24.25 9.36198V12.8502C24.25 12.949 24.2083 13.0438 24.1341 13.1137C24.0598 13.1836 23.9592 13.2229 23.8542 13.2229C23.6435 13.2231 23.4416 13.3019 23.2926 13.4422C23.1437 13.5824 23.0599 13.7726 23.0597 13.9709C23.0597 14.0693 23.0184 14.1637 22.9448 14.2335C22.8711 14.3033 22.7712 14.3429 22.6667 14.3436ZM13.2977 13.5982H22.3227C22.3935 13.3401 22.536 13.1045 22.7356 12.9155C22.9352 12.7265 23.1847 12.591 23.4583 12.5229V9.68735C23.1839 9.62017 22.9336 9.48522 22.7331 9.29645C22.5326 9.10769 22.3893 8.87194 22.3179 8.61358H13.2957C13.2244 8.87198 13.0811 9.10776 12.8806 9.29654C12.6802 9.48531 12.4297 9.62024 12.1553 9.68735V12.5229C12.4299 12.5902 12.6804 12.7254 12.8809 12.9144C13.0814 13.1035 13.2246 13.3395 13.2957 13.5982H13.2977Z" fill="black"/>
<path d="M17.8075 13.1605C17.3759 13.1606 16.954 13.0401 16.5951 12.8144C16.2363 12.5887 15.9565 12.2678 15.7914 11.8924C15.6262 11.517 15.583 11.1038 15.6672 10.7053C15.7514 10.3067 15.9592 9.94065 16.2644 9.65334C16.5696 9.36602 16.9585 9.17038 17.3818 9.09117C17.8051 9.01195 18.2438 9.05272 18.6425 9.20832C19.0412 9.36391 19.3819 9.62734 19.6216 9.96529C19.8612 10.3032 19.9891 10.7005 19.9889 11.1069C19.988 11.6513 19.7578 12.1732 19.3489 12.5582C18.94 12.9431 18.3857 13.1597 17.8075 13.1605ZM17.8075 9.79755C17.5325 9.79747 17.2637 9.87417 17.0351 10.0179C16.8064 10.1617 16.6282 10.3661 16.5229 10.6052C16.4176 10.8444 16.39 11.1076 16.4435 11.3615C16.4971 11.6154 16.6294 11.8487 16.8238 12.0318C17.0182 12.2149 17.2658 12.3396 17.5355 12.3902C17.8051 12.4408 18.0847 12.415 18.3387 12.316C18.5928 12.217 18.8099 12.0492 18.9627 11.834C19.1156 11.6188 19.1972 11.3658 19.1972 11.1069C19.197 10.7598 19.0506 10.427 18.79 10.1815C18.5294 9.93604 18.1761 9.79794 17.8075 9.79755Z" fill="black"/>
<path d="M26.1575 13.3385C26.0559 13.3385 25.9582 13.3017 25.8846 13.2358C25.8111 13.1699 25.7672 13.0799 25.7621 12.9844C25.757 12.8889 25.7911 12.7952 25.8573 12.7227C25.9236 12.6502 26.0168 12.6045 26.1179 12.5949L26.5747 12.5498L25.7711 5.34649L13.0281 6.60625C12.9236 6.61658 12.8191 6.58741 12.7375 6.52517C12.6559 6.46293 12.6038 6.37271 12.5929 6.27435C12.5819 6.176 12.6129 6.07757 12.679 6.00072C12.7451 5.92387 12.8409 5.87489 12.9454 5.86456L26.0807 4.56604C26.1324 4.56088 26.1847 4.56536 26.2346 4.57924C26.2845 4.59312 26.331 4.61612 26.3714 4.64693C26.4119 4.67773 26.4454 4.71574 26.4703 4.75878C26.4951 4.80182 26.5107 4.84904 26.5161 4.89775L27.4024 12.8428C27.4079 12.8915 27.4031 12.9407 27.3884 12.9877C27.3736 13.0347 27.3492 13.0784 27.3165 13.1165C27.2838 13.1546 27.2434 13.1862 27.1977 13.2096C27.152 13.233 27.1018 13.2476 27.0501 13.2528L26.1994 13.337C26.1852 13.3377 26.1713 13.3385 26.1575 13.3385Z" fill="black"/>
<path d="M27.9578 11.1247C27.8593 11.1246 27.7644 11.09 27.6916 11.0275C27.6188 10.9651 27.5734 10.8794 27.5641 10.7871C27.5548 10.6949 27.5823 10.6026 27.6414 10.5284C27.7004 10.4543 27.7867 10.4035 27.8834 10.386L28.1411 10.3394L26.6915 3.22585L14.2857 5.46658C14.2346 5.4758 14.182 5.47546 14.131 5.46556C14.0801 5.45566 14.0316 5.43641 13.9886 5.40889C13.9016 5.35332 13.8416 5.26749 13.8218 5.17027C13.812 5.12214 13.8124 5.07265 13.8229 5.02465C13.8334 4.97664 13.8538 4.93106 13.883 4.8905C13.9123 4.84994 13.9497 4.81519 13.9932 4.78825C14.0367 4.7613 14.0853 4.74268 14.1365 4.73346L26.9314 2.42267C27.0344 2.40409 27.1411 2.42479 27.2279 2.4802C27.3147 2.53562 27.3747 2.62123 27.3945 2.71822L28.9929 10.5641C29.0126 10.6612 28.9906 10.7616 28.9316 10.8434C28.8727 10.9252 28.7817 10.9816 28.6786 11.0002L28.0326 11.1168C28.008 11.1216 27.9829 11.1242 27.9578 11.1247Z" fill="black"/>
</svg>
