<svg width="28" height="28" viewBox="0 0 28 28" fill="none" xmlns="http://www.w3.org/2000/svg">
<circle cx="14" cy="14" r="14" fill="#023047"/>
<path d="M13.8858 20.4301V19.1431C13.4698 19.0997 13.0668 18.9871 12.6768 18.8051C12.2868 18.6144 11.9531 18.3934 11.6758 18.1421L12.1698 17.4011C12.4471 17.6437 12.7504 17.8517 13.0798 18.0251C13.4178 18.1897 13.7861 18.2721 14.1848 18.2721C14.6701 18.2721 15.0298 18.1507 15.2638 17.9081C15.5064 17.6567 15.6278 17.3317 15.6278 16.9331C15.6278 16.5777 15.5411 16.2874 15.3678 16.0621C15.1944 15.8367 14.9691 15.6417 14.6918 15.4771C14.4144 15.3124 14.1198 15.1564 13.8078 15.0091C13.5044 14.8531 13.2141 14.6841 12.9368 14.5021C12.6594 14.3114 12.4341 14.0774 12.2608 13.8001C12.0874 13.5227 12.0008 13.1717 12.0008 12.7471C12.0008 12.1664 12.1741 11.6854 12.5208 11.3041C12.8674 10.9141 13.3224 10.6757 13.8858 10.5891V9.27606H14.6658V10.5631C15.0818 10.6064 15.4328 10.7191 15.7188 10.9011C16.0134 11.0831 16.2778 11.2997 16.5118 11.5511L15.9398 12.1881C15.6971 11.9541 15.4588 11.7721 15.2248 11.6421C14.9994 11.5121 14.7091 11.4471 14.3538 11.4471C13.9551 11.4471 13.6388 11.5597 13.4048 11.7851C13.1708 12.0104 13.0538 12.3137 13.0538 12.6951C13.0538 13.0071 13.1404 13.2671 13.3138 13.4751C13.4871 13.6744 13.7124 13.8477 13.9898 13.9951C14.2671 14.1424 14.5574 14.2897 14.8608 14.4371C15.1728 14.5844 15.4674 14.7577 15.7448 14.9571C16.0221 15.1477 16.2474 15.3947 16.4208 15.6981C16.5941 16.0014 16.6808 16.3871 16.6808 16.8551C16.6808 17.4704 16.4988 17.9817 16.1348 18.3891C15.7708 18.7877 15.2811 19.0304 14.6658 19.1171V20.4301H13.8858Z" fill="#F4F5F9"/>
</svg>
