<svg width="28" height="28" viewBox="0 0 28 28" fill="none" xmlns="http://www.w3.org/2000/svg">
<circle cx="14" cy="14" r="14" fill="#023047"/>
<path d="M13.886 20.43V19.143C13.47 19.0997 13.067 18.987 12.677 18.805C12.287 18.6143 11.9533 18.3933 11.676 18.142L12.17 17.401C12.4473 17.6437 12.7507 17.8517 13.08 18.025C13.418 18.1897 13.7863 18.272 14.185 18.272C14.6703 18.272 15.03 18.1507 15.264 17.908C15.5067 17.6567 15.628 17.3317 15.628 16.933C15.628 16.5777 15.5413 16.2873 15.368 16.062C15.1947 15.8367 14.9693 15.6417 14.692 15.477C14.4147 15.3123 14.12 15.1563 13.808 15.009C13.5047 14.853 13.2143 14.684 12.937 14.502C12.6597 14.3113 12.4343 14.0773 12.261 13.8C12.0877 13.5227 12.001 13.1717 12.001 12.747C12.001 12.1663 12.1743 11.6853 12.521 11.304C12.8677 10.914 13.3227 10.6757 13.886 10.589V9.276H14.666V10.563C15.082 10.6063 15.433 10.719 15.719 10.901C16.0137 11.083 16.278 11.2997 16.512 11.551L15.94 12.188C15.6973 11.954 15.459 11.772 15.225 11.642C14.9997 11.512 14.7093 11.447 14.354 11.447C13.9553 11.447 13.639 11.5597 13.405 11.785C13.171 12.0103 13.054 12.3137 13.054 12.695C13.054 13.007 13.1407 13.267 13.314 13.475C13.4873 13.6743 13.7127 13.8477 13.99 13.995C14.2673 14.1423 14.5577 14.2897 14.861 14.437C15.173 14.5843 15.4677 14.7577 15.745 14.957C16.0223 15.1477 16.2477 15.3947 16.421 15.698C16.5943 16.0013 16.681 16.387 16.681 16.855C16.681 17.4703 16.499 17.9817 16.135 18.389C15.771 18.7877 15.2813 19.0303 14.666 19.117V20.43H13.886Z" fill="#F4F5F9"/>
</svg>
