<svg width="39" height="23" viewBox="0 0 39 23" fill="none" xmlns="http://www.w3.org/2000/svg">
<path d="M22.2422 2.58301H3.25781C2.48116 2.58301 1.85156 3.18637 1.85156 3.93066V14.083C1.85156 14.8273 2.48116 15.4307 3.25781 15.4307H22.2422C23.0188 15.4307 23.6484 14.8273 23.6484 14.083V3.93066C23.6484 3.18637 23.0188 2.58301 22.2422 2.58301Z" fill="#E81515"/>
<path d="M22.2422 2.58301H20.8359C21.2089 2.58301 21.5666 2.72499 21.8303 2.97773C22.094 3.23046 22.2422 3.57324 22.2422 3.93066V14.083C22.2422 14.4404 22.094 14.7832 21.8303 15.0359C21.5666 15.2887 21.2089 15.4307 20.8359 15.4307H22.2422C22.6151 15.4307 22.9728 15.2887 23.2366 15.0359C23.5003 14.7832 23.6484 14.4404 23.6484 14.083V3.93066C23.6484 3.57324 23.5003 3.23046 23.2366 2.97773C22.9728 2.72499 22.6151 2.58301 22.2422 2.58301Z" fill="#BE0000"/>
<path d="M23.6484 4.91895H1.85156V7.79395H23.6484V4.91895Z" fill="#57565C"/>
<path d="M23.6484 4.91895H22.2422V7.79395H23.6484V4.91895Z" fill="#3C3B41"/>
<path d="M20.7422 6.89551H1.75781C0.981162 6.89551 0.351562 7.49887 0.351562 8.24316V18.3955C0.351562 19.1398 0.981162 19.7432 1.75781 19.7432H20.7422C21.5188 19.7432 22.1484 19.1398 22.1484 18.3955V8.24316C22.1484 7.49887 21.5188 6.89551 20.7422 6.89551Z" fill="#E81515"/>
<path d="M20.7422 6.89551H19.3359C19.7089 6.89551 20.0666 7.03749 20.3303 7.29023C20.594 7.54296 20.7422 7.88574 20.7422 8.24316V18.3955C20.7422 18.7529 20.594 19.0957 20.3303 19.3484C20.0666 19.6012 19.7089 19.7432 19.3359 19.7432H20.7422C21.1151 19.7432 21.4728 19.6012 21.7366 19.3484C22.0003 19.0957 22.1484 18.7529 22.1484 18.3955V8.24316C22.1484 7.88574 22.0003 7.54296 21.7366 7.29023C21.4728 7.03749 21.1151 6.89551 20.7422 6.89551Z" fill="#BE0000"/>
<path d="M19.4297 8.91699H14.2266C13.9677 8.91699 13.7578 9.11811 13.7578 9.36621V9.90527C13.7578 10.1534 13.9677 10.3545 14.2266 10.3545H19.4297C19.6886 10.3545 19.8984 10.1534 19.8984 9.90527V9.36621C19.8984 9.11811 19.6886 8.91699 19.4297 8.91699Z" fill="white"/>
<path d="M19.4297 8.91699H18.0234C18.1478 8.91699 18.267 8.96432 18.3549 9.04856C18.4428 9.13281 18.4922 9.24707 18.4922 9.36621V9.90527C18.4922 10.0244 18.4428 10.1387 18.3549 10.2229C18.267 10.3072 18.1478 10.3545 18.0234 10.3545H19.4297C19.554 10.3545 19.6732 10.3072 19.7611 10.2229C19.8491 10.1387 19.8984 10.0244 19.8984 9.90527V9.36621C19.8984 9.24707 19.8491 9.13281 19.7611 9.04856C19.6732 8.96432 19.554 8.91699 19.4297 8.91699Z" fill="#E1E1E3"/>
<path d="M5.41406 8.91699H3.07031C2.81143 8.91699 2.60156 9.11811 2.60156 9.36621V10.7588C2.60156 11.0069 2.81143 11.208 3.07031 11.208H5.41406C5.67295 11.208 5.88281 11.0069 5.88281 10.7588V9.36621C5.88281 9.11811 5.67295 8.91699 5.41406 8.91699Z" fill="#F8BE32"/>
<path d="M5.41383 8.91699H4.41211C4.53643 8.91699 4.65566 8.96432 4.74357 9.04856C4.83147 9.13281 4.88086 9.24707 4.88086 9.36621V10.7588C4.88086 10.8779 4.83147 10.9922 4.74357 11.0764C4.65566 11.1607 4.53643 11.208 4.41211 11.208H5.41383C5.53815 11.208 5.65738 11.1607 5.74528 11.0764C5.83319 10.9922 5.88258 10.8779 5.88258 10.7588V9.36621C5.88258 9.24707 5.83319 9.13281 5.74528 9.04856C5.65738 8.96432 5.53815 8.91699 5.41383 8.91699Z" fill="#FED030"/>
<path d="M9.94078 16.7109H2.60156C2.50832 16.7109 2.4189 16.6754 2.35297 16.6123C2.28704 16.5491 2.25 16.4634 2.25 16.374C2.25 16.2847 2.28704 16.199 2.35297 16.1358C2.4189 16.0726 2.50832 16.0371 2.60156 16.0371H9.94078C10.034 16.0371 10.1234 16.0726 10.1894 16.1358C10.2553 16.199 10.2923 16.2847 10.2923 16.374C10.2923 16.4634 10.2553 16.5491 10.1894 16.6123C10.1234 16.6754 10.034 16.7109 9.94078 16.7109ZM6.63234 18.0586H2.6175C2.52426 18.0586 2.43484 18.0231 2.36891 17.9599C2.30298 17.8967 2.26594 17.811 2.26594 17.7217C2.26594 17.6323 2.30298 17.5466 2.36891 17.4834C2.43484 17.4203 2.52426 17.3848 2.6175 17.3848H6.63234C6.72558 17.3848 6.81501 17.4203 6.88094 17.4834C6.94687 17.5466 6.98391 17.6323 6.98391 17.7217C6.98391 17.811 6.94687 17.8967 6.88094 17.9599C6.81501 18.0231 6.72558 18.0586 6.63234 18.0586Z" fill="white"/>
<path d="M18.8438 18.126C19.4262 18.126 19.8984 17.6735 19.8984 17.1152C19.8984 16.557 19.4262 16.1045 18.8438 16.1045C18.2613 16.1045 17.7891 16.557 17.7891 17.1152C17.7891 17.6735 18.2613 18.126 18.8438 18.126Z" fill="#F9A242"/>
<path d="M18.8437 16.1045C18.724 16.1045 18.6051 16.1241 18.4922 16.1624C18.6977 16.2322 18.8756 16.3612 19.0015 16.5319C19.1273 16.7025 19.1949 16.9063 19.1949 17.1152C19.1949 17.3242 19.1273 17.528 19.0015 17.6986C18.8756 17.8692 18.6977 17.9983 18.4922 18.068C18.637 18.1172 18.7913 18.1354 18.9442 18.1214C19.0972 18.1074 19.2451 18.0616 19.3776 17.9872C19.5102 17.9127 19.6241 17.8114 19.7115 17.6903C19.7989 17.5692 19.8577 17.4313 19.8837 17.2862C19.9097 17.1411 19.9022 16.9922 19.8619 16.8502C19.8217 16.7081 19.7495 16.5762 19.6504 16.4636C19.5514 16.3511 19.4279 16.2606 19.2885 16.1986C19.1492 16.1365 18.9974 16.1044 18.8437 16.1045Z" fill="#F69531"/>
<path d="M17.4375 18.126C18.02 18.126 18.4922 17.6735 18.4922 17.1152C18.4922 16.557 18.02 16.1045 17.4375 16.1045C16.855 16.1045 16.3828 16.557 16.3828 17.1152C16.3828 17.6735 16.855 18.126 17.4375 18.126Z" fill="#F8BE32"/>
<path d="M17.4375 16.1045C17.3177 16.1045 17.1988 16.1241 17.0859 16.1624C17.2915 16.2322 17.4694 16.3612 17.5952 16.5319C17.7211 16.7025 17.7886 16.9063 17.7886 17.1152C17.7886 17.3242 17.7211 17.528 17.5952 17.6986C17.4694 17.8692 17.2915 17.9983 17.0859 18.068C17.2308 18.1172 17.385 18.1354 17.538 18.1214C17.6909 18.1074 17.8388 18.0616 17.9714 17.9872C18.1039 17.9127 18.2179 17.8114 18.3053 17.6903C18.3927 17.5692 18.4514 17.4313 18.4774 17.2862C18.5034 17.1411 18.496 16.9922 18.4557 16.8502C18.4154 16.7081 18.3432 16.5762 18.2442 16.4636C18.1451 16.3511 18.0216 16.2606 17.8823 16.1986C17.7429 16.1365 17.5911 16.1044 17.4375 16.1045Z" fill="#FED030"/>
<path d="M5.66406 14.375H2.61719C2.52395 14.375 2.43453 14.3395 2.3686 14.2763C2.30266 14.2131 2.26562 14.1274 2.26562 14.0381C2.26562 13.9487 2.30266 13.863 2.3686 13.7999C2.43453 13.7367 2.52395 13.7012 2.61719 13.7012H5.66406C5.7573 13.7012 5.84672 13.7367 5.91265 13.7999C5.97859 13.863 6.01563 13.9487 6.01563 14.0381C6.01563 14.1274 5.97859 14.2131 5.91265 14.2763C5.84672 14.3395 5.7573 14.375 5.66406 14.375ZM10.4083 14.375H7.36141C7.26817 14.375 7.17875 14.3395 7.11281 14.2763C7.04688 14.2131 7.00984 14.1274 7.00984 14.0381C7.00984 13.9487 7.04688 13.863 7.11281 13.7999C7.17875 13.7367 7.26817 13.7012 7.36141 13.7012H10.4083C10.5015 13.7012 10.5909 13.7367 10.6569 13.7999C10.7228 13.863 10.7598 13.9487 10.7598 14.0381C10.7598 14.1274 10.7228 14.2131 10.6569 14.2763C10.5909 14.3395 10.5015 14.375 10.4083 14.375ZM15.153 14.375H12.1061C12.0129 14.375 11.9234 14.3395 11.8575 14.2763C11.7916 14.2131 11.7545 14.1274 11.7545 14.0381C11.7545 13.9487 11.7916 13.863 11.8575 13.7999C11.9234 13.7367 12.0129 13.7012 12.1061 13.7012H15.153C15.2462 13.7012 15.3356 13.7367 15.4016 13.7999C15.4675 13.863 15.5045 13.9487 15.5045 14.0381C15.5045 14.1274 15.4675 14.2131 15.4016 14.2763C15.3356 14.3395 15.2462 14.375 15.153 14.375ZM19.8977 14.375H16.8508C16.7575 14.375 16.6681 14.3395 16.6022 14.2763C16.5363 14.2131 16.4992 14.1274 16.4992 14.0381C16.4992 13.9487 16.5363 13.863 16.6022 13.7999C16.6681 13.7367 16.7575 13.7012 16.8508 13.7012H19.8977C19.9909 13.7012 20.0803 13.7367 20.1463 13.7999C20.2122 13.863 20.2492 13.9487 20.2492 14.0381C20.2492 14.1274 20.2122 14.2131 20.1463 14.2763C20.0803 14.3395 19.9909 14.375 19.8977 14.375Z" fill="white"/>
<path d="M36.147 1.99994L18.0371 5.50146L20.0413 15.8673L38.1512 12.3657L36.147 1.99994Z" fill="#569F7D"/>
<path d="M35.0026 4.83788L16.6562 6.74609L17.7485 17.2472L36.0948 15.339L35.0026 4.83788Z" fill="#60B18B"/>
<path d="M33.9375 8.7124H15.4922V19.2702H33.9375V8.7124Z" fill="#8ED8B5"/>
<path d="M32.24 15.2967C31.8477 15.2976 31.4719 15.4541 31.1949 15.7318C30.9178 16.0094 30.7623 16.3856 30.7623 16.7779H18.6711C18.6711 16.5833 18.6328 16.3907 18.5583 16.2109C18.4838 16.0312 18.3747 15.8679 18.2371 15.7304C18.0995 15.5928 17.9362 15.4837 17.7564 15.4093C17.5767 15.3349 17.384 15.2966 17.1895 15.2967V10.6867C17.384 10.6867 17.5767 10.6484 17.7565 10.5739C17.9362 10.4995 18.0996 10.3904 18.2371 10.2528C18.3747 10.1152 18.4839 9.95185 18.5583 9.77208C18.6328 9.59232 18.6711 9.39965 18.6711 9.20508H30.7623C30.7621 9.5974 30.9177 9.97374 31.1947 10.2515C31.4717 10.5293 31.8477 10.6858 32.24 10.6867V15.2967Z" fill="#B1DFBC"/>
<path d="M24.7147 15.2135C25.9421 15.2135 26.9372 14.2185 26.9372 12.991C26.9372 11.7636 25.9421 10.7686 24.7147 10.7686C23.4872 10.7686 22.4922 11.7636 22.4922 12.991C22.4922 14.2185 23.4872 15.2135 24.7147 15.2135Z" fill="#8ED8B5"/>
<path d="M35.3663 3.127L37.1888 12.5528L38.1513 12.3667L36.147 2.00098L18.0371 5.50267L18.2189 6.4425L35.3663 3.127Z" fill="#60B18B"/>
<path d="M34.2218 5.9644L35.2065 15.4316L36.0946 15.3395L35.0026 4.83838L16.6562 6.7466L16.7636 7.78051L34.2218 5.9644Z" fill="#8ED8B5"/>
<path d="M15.4922 7.7124V8.71232H32.9292V18.2702H33.9375V7.7124H15.4922Z" fill="#B1DFBC"/>
<path d="M17.5948 10.623C17.4633 10.6631 17.3269 10.6844 17.1895 10.6866V11.2846C17.3811 11.1041 17.521 10.8757 17.5948 10.623ZM30.1456 16.7777H30.7623C30.7643 16.6358 30.7868 16.495 30.8293 16.3595C30.5671 16.433 30.3304 16.5778 30.1456 16.7777Z" fill="#8ED8B5"/>
<path d="M30.7626 9.20508H18.6714C18.6707 9.57613 18.53 9.93326 18.2773 10.205H29.7543C29.7543 10.3995 29.7926 10.5922 29.8671 10.7719C29.9415 10.9517 30.0507 11.115 30.1883 11.2525C30.3259 11.3901 30.4892 11.4992 30.669 11.5736C30.8487 11.648 31.0414 11.6862 31.2359 11.6862V15.6982C31.5076 15.4417 31.8667 15.2982 32.2403 15.2967V10.6867C31.848 10.6858 31.472 10.5293 31.195 10.2515C30.9179 9.97374 30.7624 9.5974 30.7626 9.20508Z" fill="#C1ECD0"/>
<path d="M24.716 10.7691C24.3042 10.7702 23.9008 10.886 23.5512 11.1035C23.2015 11.321 22.9193 11.6316 22.7363 12.0005C23.0378 11.8494 23.37 11.7699 23.7072 11.768C23.999 11.768 24.2881 11.8255 24.5577 11.9372C24.8273 12.0489 25.0723 12.2126 25.2787 12.4189C25.4851 12.6253 25.6488 12.8703 25.7605 13.14C25.8722 13.4096 25.9297 13.6986 25.9297 13.9905C25.9275 14.335 25.8443 14.6741 25.6868 14.9805C26.1393 14.762 26.5041 14.3962 26.7214 13.9431C26.9386 13.49 26.9955 12.9765 26.8827 12.4868C26.7698 11.9972 26.4939 11.5604 26.1002 11.2481C25.7066 10.9358 25.2185 10.7665 24.716 10.7681V10.7691Z" fill="#B1DFBC"/>
<path d="M33.9379 19.8886H15.4926C15.3619 19.8886 15.2366 19.8367 15.1443 19.7444C15.0519 19.652 15 19.5267 15 19.3961V8.83827C15 8.70764 15.0519 8.58235 15.1443 8.48997C15.2366 8.3976 15.3619 8.3457 15.4926 8.3457H33.9379C34.0685 8.3457 34.1938 8.3976 34.2862 8.48997C34.3786 8.58235 34.4305 8.70764 34.4305 8.83827V19.3961C34.4305 19.5267 34.3786 19.652 34.2862 19.7444C34.1938 19.8367 34.0685 19.8886 33.9379 19.8886ZM15.9851 18.9035H33.4453V9.33085H15.9851V18.9035Z" fill="#1C1C1B"/>
<path d="M30.7627 18.3958H18.6715C18.5409 18.3958 18.4156 18.3439 18.3232 18.2516C18.2308 18.1592 18.1789 18.0339 18.1789 17.9033C18.1785 17.6411 18.0742 17.3898 17.8888 17.2045C17.7033 17.0192 17.452 16.9149 17.1898 16.9147C17.0592 16.9147 16.9339 16.8628 16.8415 16.7704C16.7492 16.678 16.6973 16.5527 16.6973 16.4221V11.8121C16.6973 11.6815 16.7492 11.5562 16.8415 11.4638C16.9339 11.3714 17.0592 11.3195 17.1898 11.3195C17.452 11.3192 17.7034 11.2148 17.8888 11.0294C18.0742 10.844 18.1785 10.5927 18.1789 10.3305C18.1789 10.1998 18.2308 10.0745 18.3232 9.98216C18.4156 9.88979 18.5409 9.83789 18.6715 9.83789H30.7627C30.8933 9.83789 31.0186 9.88979 31.111 9.98216C31.2033 10.0745 31.2552 10.1998 31.2552 10.3305C31.2555 10.592 31.3592 10.8429 31.5438 11.0282C31.7284 11.2135 31.9788 11.3182 32.2404 11.3195C32.371 11.3195 32.4963 11.3714 32.5887 11.4638C32.681 11.5562 32.7329 11.6815 32.7329 11.8121V16.4221C32.7329 16.5527 32.681 16.678 32.5887 16.7704C32.4963 16.8628 32.371 16.9147 32.2404 16.9147C31.9783 16.9149 31.727 17.0192 31.5416 17.2045C31.3563 17.3898 31.252 17.6411 31.2518 17.9033C31.2518 18.0333 31.2004 18.1581 31.1087 18.2503C31.0171 18.3426 30.8927 18.3949 30.7627 18.3958ZM19.104 17.4107H30.3346C30.4227 17.0696 30.6 16.7582 30.8484 16.5084C31.0968 16.2587 31.4072 16.0796 31.7478 15.9896V12.2421C31.4063 12.1533 31.0948 11.975 30.8453 11.7255C30.5958 11.476 30.4175 11.1645 30.3287 10.823H19.1015C19.0128 11.1645 18.8345 11.4761 18.585 11.7256C18.3355 11.9751 18.0239 12.1534 17.6824 12.2421V15.9896C18.0241 16.0786 18.3358 16.2572 18.5853 16.5071C18.8348 16.7569 19.013 17.0689 19.1015 17.4107H19.104Z" fill="#1C1C1B"/>
<path d="M24.7155 16.832C24.1785 16.8321 23.6535 16.6729 23.2069 16.3746C22.7603 16.0763 22.4123 15.6522 22.2067 15.156C22.0012 14.6599 21.9474 14.1139 22.0522 13.5872C22.157 13.0604 22.4156 12.5766 22.7954 12.1969C23.1752 11.8172 23.6591 11.5586 24.1858 11.4539C24.7125 11.3493 25.2585 11.4031 25.7546 11.6088C26.2508 11.8144 26.6747 12.1625 26.973 12.6092C27.2712 13.0558 27.4303 13.5808 27.4301 14.1179C27.4289 14.8374 27.1425 15.5272 26.6337 16.0359C26.1249 16.5447 25.4351 16.8309 24.7155 16.832ZM24.7155 12.3875C24.3734 12.3874 24.0389 12.4888 23.7544 12.6788C23.4698 12.8688 23.248 13.1389 23.117 13.4549C22.986 13.771 22.9516 14.1188 23.0183 14.4544C23.0849 14.79 23.2496 15.0983 23.4915 15.3403C23.7333 15.5823 24.0415 15.7471 24.3771 15.814C24.7126 15.8808 25.0605 15.8467 25.3766 15.7158C25.6927 15.585 25.963 15.3633 26.1532 15.0789C26.3433 14.7945 26.4449 14.46 26.445 14.1179C26.4447 13.6592 26.2624 13.2194 25.9382 12.895C25.614 12.5705 25.1742 12.388 24.7155 12.3875Z" fill="#1C1C1B"/>
<path d="M35.107 17.0676C34.9806 17.0676 34.8591 17.0191 34.7675 16.932C34.6759 16.8449 34.6213 16.7259 34.615 16.5997C34.6087 16.4735 34.6511 16.3496 34.7335 16.2538C34.8159 16.158 34.932 16.0975 35.0577 16.0849L35.6262 16.0253L34.6262 6.50538L18.7689 8.17028C18.6389 8.18393 18.5088 8.14538 18.4073 8.06312C18.3057 7.98086 18.241 7.86163 18.2273 7.73164C18.2137 7.60166 18.2522 7.47157 18.3345 7.37C18.4167 7.26844 18.536 7.20371 18.6659 7.19006L35.0114 5.47394C35.0758 5.46711 35.1409 5.47304 35.203 5.49138C35.265 5.50972 35.3229 5.54012 35.3732 5.58083C35.4235 5.62155 35.4653 5.67178 35.4962 5.72866C35.5271 5.78554 35.5465 5.84795 35.5533 5.91233L36.6561 16.4125C36.663 16.4768 36.657 16.5419 36.6387 16.604C36.6204 16.6661 36.59 16.7239 36.5492 16.7743C36.5085 16.8246 36.4583 16.8664 36.4014 16.8973C36.3445 16.9282 36.2821 16.9475 36.2177 16.9543L35.1592 17.0656C35.1415 17.0666 35.1242 17.0676 35.107 17.0676Z" fill="#1C1C1B"/>
<path d="M37.3456 14.1417C37.2231 14.1416 37.105 14.0958 37.0145 14.0133C36.9239 13.9309 36.8673 13.8176 36.8557 13.6956C36.8441 13.5737 36.8784 13.4518 36.9519 13.3537C37.0254 13.2557 37.1327 13.1885 37.253 13.1654L37.5737 13.1038L35.7699 3.70261L20.3322 6.66395C20.2686 6.67614 20.2032 6.67568 20.1397 6.6626C20.0763 6.64952 20.0161 6.62407 19.9625 6.58771C19.8542 6.51427 19.7795 6.40083 19.7549 6.27235C19.7427 6.20873 19.7432 6.14334 19.7563 6.0799C19.7693 6.01645 19.7948 5.95621 19.8311 5.9026C19.8675 5.849 19.9141 5.80308 19.9682 5.76747C20.0223 5.73186 20.0829 5.70725 20.1465 5.69506L36.0684 2.64111C36.1966 2.61657 36.3293 2.64392 36.4374 2.71716C36.5454 2.7904 36.62 2.90354 36.6447 3.03172L38.6337 13.4008C38.6582 13.5291 38.6308 13.6619 38.5575 13.77C38.4841 13.8781 38.3709 13.9526 38.2426 13.9772L37.4387 14.1313C37.4081 14.1377 37.3769 14.1411 37.3456 14.1417Z" fill="#1C1C1B"/>
</svg>
