<svg width="21" height="16" viewBox="0 0 21 16" fill="none" xmlns="http://www.w3.org/2000/svg">
<path d="M18.7824 0.000316422L2.69727 3.11035L4.47739 12.3172L20.5626 9.20718L18.7824 0.000316422Z" fill="#569F7D"/>
<path d="M17.7668 2.52096L1.47168 4.21582L2.44179 13.5429L18.7369 11.848L17.7668 2.52096Z" fill="#60B18B"/>
<path d="M16.8206 5.07324H0.4375V14.4506H16.8206V5.07324Z" fill="#8ED8B5"/>
<path d="M15.3121 11.81C14.9638 11.8108 14.6299 11.9497 14.3839 12.1964C14.1378 12.443 13.9996 12.7772 13.9996 13.1255H3.26034C3.26034 12.9527 3.22629 12.7816 3.16015 12.622C3.09401 12.4624 2.99707 12.3173 2.87486 12.1951C2.75265 12.073 2.60758 11.9761 2.44791 11.91C2.28825 11.8439 2.11713 11.8099 1.94434 11.81V7.71541C2.11716 7.71541 2.28828 7.68137 2.44795 7.61524C2.60761 7.5491 2.75269 7.45217 2.87489 7.32997C2.99709 7.20776 3.09403 7.06269 3.16016 6.90303C3.2263 6.74336 3.26034 6.57223 3.26034 6.39941H13.9996C13.9995 6.74787 14.1377 7.08214 14.3837 7.32886C14.6298 7.57558 14.9637 7.7146 15.3121 7.71541V11.81Z" fill="#B1DFBC"/>
<path d="M8.62927 11.7361C9.71948 11.7361 10.6033 10.8523 10.6033 9.76209C10.6033 8.67188 9.71948 7.78809 8.62927 7.78809C7.53906 7.78809 6.65527 8.67188 6.65527 9.76209C6.65527 10.8523 7.53906 11.7361 8.62927 11.7361Z" fill="#8ED8B5"/>
<path d="M18.089 1.00012L19.7077 9.37212L20.5626 9.20675L18.7824 0L2.69727 3.11019L2.8587 3.94494L18.089 1.00012Z" fill="#60B18B"/>
<path d="M17.0734 3.52063L17.9479 11.9294L18.7367 11.8476L17.7668 2.52051L1.47168 4.21538L1.56705 5.1337L17.0734 3.52063Z" fill="#8ED8B5"/>
<path d="M0.4375 5.07324V5.96137H15.925V14.4506H16.8206V5.07324H0.4375Z" fill="#B1DFBC"/>
<path d="M2.3044 7.65918C2.1876 7.69472 2.0664 7.71372 1.94434 7.71562V8.24674C2.11455 8.08645 2.23885 7.88361 2.3044 7.65918ZM13.4519 13.1257H13.9996C14.0014 12.9997 14.0215 12.8746 14.0591 12.7543C13.8263 12.8196 13.6161 12.9481 13.4519 13.1257Z" fill="#8ED8B5"/>
<path d="M14.0004 6.39941H3.26113C3.26055 6.72898 3.13555 7.04618 2.91113 7.28754H13.1049C13.1049 7.46034 13.1389 7.63144 13.2051 7.79108C13.2712 7.95072 13.3681 8.09577 13.4904 8.21794C13.6126 8.3401 13.7576 8.437 13.9173 8.50309C14.077 8.56917 14.2481 8.60316 14.4209 8.6031V12.1665C14.6622 11.9388 14.9811 11.8113 15.3129 11.81V7.71541C14.9645 7.7146 14.6306 7.57558 14.3845 7.32886C14.1385 7.08214 14.0003 6.74787 14.0004 6.39941Z" fill="#C1ECD0"/>
<path d="M8.62941 7.78799C8.26365 7.78898 7.90541 7.89183 7.59484 8.08502C7.28426 8.27821 7.03365 8.5541 6.87109 8.88174C7.13885 8.74759 7.43392 8.67693 7.73341 8.67524C7.99264 8.67524 8.24933 8.7263 8.48882 8.82551C8.72832 8.92471 8.94593 9.07011 9.12924 9.25341C9.31254 9.43672 9.45794 9.65433 9.55714 9.89383C9.65635 10.1333 9.70741 10.39 9.70741 10.6492C9.70547 10.9552 9.63159 11.2565 9.49172 11.5286C9.8936 11.3345 10.2176 11.0096 10.4106 10.6071C10.6036 10.2047 10.6541 9.74862 10.5538 9.31371C10.4536 8.87879 10.2086 8.49084 9.85891 8.21347C9.50925 7.9361 9.07572 7.78576 8.62941 7.78712V7.78799Z" fill="#B1DFBC"/>
<path d="M16.8206 15.8881H0.4375C0.321468 15.8881 0.210188 15.842 0.128141 15.76C0.0460936 15.6779 0 15.5666 0 15.4506V6.07324C0 5.95721 0.0460936 5.84593 0.128141 5.76388C0.210188 5.68184 0.321468 5.63574 0.4375 5.63574H16.8206C16.9366 5.63574 17.0479 5.68184 17.1299 5.76388C17.212 5.84593 17.2581 5.95721 17.2581 6.07324V15.4506C17.2581 15.5666 17.212 15.6779 17.1299 15.76C17.0479 15.842 16.9366 15.8881 16.8206 15.8881ZM0.875 15.0131H16.3831V6.51074H0.875V15.0131Z" fill="#1C1C1B"/>
<path d="M13.9996 14.563H3.26034C3.1443 14.563 3.03302 14.5169 2.95098 14.4349C2.86893 14.3529 2.82284 14.2416 2.82284 14.1255C2.82249 13.8927 2.72981 13.6695 2.56512 13.5049C2.40043 13.3403 2.17718 13.2477 1.94434 13.2475C1.8283 13.2475 1.71702 13.2014 1.63498 13.1193C1.55293 13.0373 1.50684 12.926 1.50684 12.81V8.71541C1.50684 8.59938 1.55293 8.4881 1.63498 8.40606C1.71702 8.32401 1.8283 8.27791 1.94434 8.27791C2.17722 8.27757 2.40047 8.1849 2.56515 8.02022C2.72982 7.85555 2.82249 7.6323 2.82284 7.39941C2.82284 7.28338 2.86893 7.1721 2.95098 7.09005C3.03302 7.00801 3.1443 6.96191 3.26034 6.96191H13.9996C14.1157 6.96191 14.227 7.00801 14.309 7.09005C14.3911 7.1721 14.4371 7.28338 14.4371 7.39941C14.4374 7.63173 14.5295 7.85452 14.6935 8.01912C14.8574 8.18372 15.0798 8.27676 15.3121 8.27791C15.4282 8.27791 15.5395 8.32401 15.6215 8.40606C15.7036 8.4881 15.7496 8.59938 15.7496 8.71541V12.81C15.7496 12.926 15.7036 13.0373 15.6215 13.1193C15.5395 13.2014 15.4282 13.2475 15.3121 13.2475C15.0793 13.2477 14.8561 13.3403 14.6915 13.5049C14.5269 13.6695 14.4343 13.8927 14.4341 14.1255C14.4341 14.241 14.3884 14.3519 14.307 14.4338C14.2256 14.5158 14.1151 14.5622 13.9996 14.563ZM3.64446 13.688H13.6195C13.6977 13.3851 13.8552 13.1085 14.0758 12.8867C14.2964 12.6648 14.5722 12.5058 14.8746 12.4259V9.09735C14.5714 9.01848 14.2946 8.86008 14.0731 8.6385C13.8515 8.41691 13.6931 8.14019 13.6142 7.83691H3.64227C3.56349 8.14023 3.40511 8.417 3.18352 8.63859C2.96192 8.86019 2.68515 9.01857 2.38184 9.09735V12.4259C2.68533 12.5049 2.96219 12.6635 3.18379 12.8854C3.40539 13.1074 3.56368 13.3844 3.64227 13.688H3.64446Z" fill="#1C1C1B"/>
<path d="M8.62971 13.1736C8.15271 13.1737 7.68639 13.0323 7.28974 12.7673C6.8931 12.5024 6.58394 12.1257 6.40138 11.685C6.21882 11.2443 6.17105 10.7594 6.26412 10.2916C6.35719 9.82374 6.58692 9.39401 6.92424 9.05674C7.26157 8.71948 7.69134 8.48983 8.15919 8.39685C8.62704 8.30386 9.11197 8.35172 9.55262 8.53436C9.99327 8.717 10.3699 9.02623 10.6348 9.42292C10.8997 9.81961 11.0409 10.286 11.0408 10.763C11.0397 11.4021 10.7854 12.0147 10.3334 12.4665C9.88146 12.9184 9.26881 13.1727 8.62971 13.1736ZM8.62971 9.22602C8.32582 9.22594 8.02873 9.31597 7.776 9.48473C7.52328 9.65349 7.32627 9.8934 7.2099 10.1741C7.09353 10.4549 7.06301 10.7638 7.12221 11.0619C7.18141 11.3599 7.32767 11.6337 7.5425 11.8487C7.75732 12.0636 8.03105 12.21 8.32909 12.2694C8.62712 12.3288 8.93607 12.2984 9.21686 12.1822C9.49766 12.066 9.73768 11.8691 9.90658 11.6165C10.0755 11.3639 10.1657 11.0669 10.1658 10.763C10.1655 10.3556 10.0037 9.9649 9.71567 9.67675C9.42768 9.38859 9.03711 9.22649 8.62971 9.22602Z" fill="#1C1C1B"/>
<path d="M17.8581 13.3829C17.7459 13.3829 17.6379 13.3398 17.5566 13.2624C17.4753 13.1851 17.4268 13.0794 17.4211 12.9673C17.4155 12.8552 17.4532 12.7452 17.5264 12.6601C17.5996 12.575 17.7027 12.5213 17.8144 12.5101L18.3193 12.4571L17.4311 4.00157L3.34671 5.48032C3.23126 5.49245 3.11572 5.45821 3.02551 5.38515C2.93529 5.31209 2.8778 5.20618 2.86568 5.09073C2.85355 4.97528 2.88779 4.85974 2.96085 4.76953C3.03391 4.67931 3.13982 4.62182 3.25527 4.6097L17.7733 3.08545C17.8304 3.07938 17.8882 3.08465 17.9434 3.10094C17.9985 3.11723 18.0499 3.14423 18.0946 3.18039C18.1393 3.21655 18.1764 3.26117 18.2039 3.31169C18.2313 3.36221 18.2485 3.41764 18.2545 3.47482L19.2341 12.801C19.2401 12.8582 19.2349 12.916 19.2186 12.9711C19.2023 13.0263 19.1753 13.0776 19.1391 13.1223C19.103 13.167 19.0584 13.2042 19.0078 13.2316C18.9573 13.259 18.9019 13.2763 18.8447 13.2823L17.9045 13.3811C17.8888 13.382 17.8735 13.3829 17.8581 13.3829Z" fill="#1C1C1B"/>
<path d="M19.8477 10.7841C19.7388 10.784 19.634 10.7433 19.5535 10.6701C19.473 10.5968 19.4228 10.4962 19.4125 10.3879C19.4022 10.2796 19.4327 10.1713 19.4979 10.0842C19.5632 9.99714 19.6585 9.93751 19.7654 9.91695L20.0502 9.86227L18.4481 1.51214L4.7364 4.14239C4.6799 4.15322 4.62181 4.15282 4.56546 4.1412C4.50911 4.12958 4.45561 4.10698 4.40799 4.07468C4.31183 4.00945 4.24552 3.9087 4.22365 3.79458C4.21282 3.73808 4.21323 3.67999 4.22485 3.62364C4.23646 3.56729 4.25907 3.51378 4.29136 3.46617C4.32366 3.41856 4.36502 3.37777 4.41308 3.34614C4.46114 3.31451 4.51496 3.29266 4.57146 3.28183L18.7132 0.569331C18.8271 0.547527 18.945 0.571819 19.0409 0.636871C19.1369 0.701923 19.2032 0.802415 19.2251 0.916268L20.9917 10.1261C21.0135 10.24 20.9892 10.358 20.924 10.4539C20.8589 10.5499 20.7583 10.6161 20.6443 10.638L19.9303 10.7749C19.9031 10.7805 19.8754 10.7836 19.8477 10.7841Z" fill="#1C1C1B"/>
</svg>
