<svg width="24" height="24" viewBox="0 0 24 24" fill="none" xmlns="http://www.w3.org/2000/svg">
<circle cx="12" cy="12" r="12" fill="#FF0000"/>
<path d="M18.8124 4.07727H5.90623C5.40573 4.07727 5 4.483 5 4.9835V12.5812C5 13.0817 5.40573 13.4874 5.90623 13.4874H18.8124C19.3129 13.4874 19.7187 13.0817 19.7187 12.5812V4.9835C19.7187 4.483 19.3129 4.07727 18.8124 4.07727Z" fill="#595BD4"/>
<path d="M18.8124 4H5.90623C5.40573 4 5 4.40573 5 4.90623V12.5039C5 13.0044 5.40573 13.4102 5.90623 13.4102H18.8124C19.3129 13.4102 19.7187 13.0044 19.7187 12.5039V4.90623C19.7187 4.40573 19.3129 4 18.8124 4Z" fill="url(#paint0_linear_1240_570)"/>
<path fill-rule="evenodd" clip-rule="evenodd" d="M5.90623 13.4102H10.6263L14.3071 4H5.90623C5.40802 4 5 4.40802 5 4.90623V12.5082C5 13.0064 5.40802 13.4145 5.90623 13.4145V13.4102Z" fill="url(#paint1_linear_1240_570)"/>
<path fill-rule="evenodd" clip-rule="evenodd" d="M6.90269 5.93265C6.88551 5.90688 6.86833 5.86823 6.85544 5.83817C6.8082 5.74368 6.68794 5.58906 6.61063 5.52893C6.54621 5.47739 6.44743 5.39579 6.37012 5.36143C6.37012 5.3829 6.383 5.41297 6.39159 5.43444L6.71801 6.60266H7.13461L7.59846 5.52893C7.61994 5.48169 7.7402 5.21111 7.74879 5.16816H7.33218L6.96282 6.12163C6.95852 6.13022 6.95852 6.13022 6.95423 6.13451C6.95423 6.10874 6.91557 5.94554 6.91128 5.93265H6.90269ZM10.1926 5.57188C10.1926 5.61053 10.2312 5.78233 10.2441 5.83387C10.2656 5.91547 10.2828 6.00567 10.3 6.09157H9.98644L10.1926 5.57188ZM9.39374 6.61125C9.849 6.61125 9.7674 6.64561 9.82323 6.50817C9.84041 6.46952 9.85329 6.42657 9.86618 6.39221H10.3644C10.3687 6.42657 10.3816 6.46952 10.3902 6.50817C10.3987 6.55971 10.403 6.61125 10.4331 6.61125C10.8239 6.61125 10.7853 6.63702 10.7638 6.53824C10.7552 6.50388 10.7509 6.4824 10.7423 6.44804C10.7295 6.38362 10.7123 6.32779 10.7037 6.26766L10.5448 5.53752C10.519 5.41726 10.4932 5.29271 10.4632 5.17245C10.3601 5.17245 10.0981 5.15098 10.0251 5.20681C9.95208 5.26265 9.89624 5.43444 9.85759 5.51605C9.82323 5.58906 9.79316 5.66207 9.75881 5.73938C9.72874 5.81669 9.69438 5.88541 9.66002 5.95842C9.58271 6.12163 9.46246 6.43086 9.38944 6.5726C9.38085 6.59407 9.35938 6.61554 9.39374 6.61554V6.61125ZM8.44886 5.60194V5.64489C8.44886 5.8081 8.63783 5.94554 8.76239 5.99708C8.79245 6.00996 8.82251 6.02285 8.85687 6.04432C9.19617 6.22471 8.84399 6.43086 8.43597 6.26766C8.4145 6.25907 8.36296 6.2333 8.34148 6.2333C8.33719 6.28054 8.3243 6.34067 8.31571 6.38791L8.28994 6.54683C8.28994 6.58548 8.60347 6.62843 8.67649 6.62843C8.88694 6.62843 9.04585 6.61554 9.20906 6.50388C9.4281 6.35355 9.52688 6.01426 9.18329 5.8081C9.05873 5.73509 8.85687 5.67925 8.85687 5.57188C8.85687 5.42585 9.21765 5.42585 9.40662 5.52893C9.41092 5.4688 9.45816 5.27983 9.45816 5.2154C9.35079 5.16386 9.19188 5.15527 9.06303 5.15527C8.78386 5.15527 8.44886 5.32278 8.44886 5.61053V5.60194ZM7.65 6.60266H8.04513L8.25559 5.35284C8.25988 5.32278 8.26417 5.29701 8.26847 5.26694C8.27276 5.23258 8.28135 5.20681 8.28135 5.17245H7.88622C7.88622 5.2197 7.69725 6.28484 7.67577 6.42227L7.64571 6.60266H7.65Z" fill="#29292B"/>
<path fill-rule="evenodd" clip-rule="evenodd" d="M6.36993 5.36152C6.44724 5.39588 6.54602 5.47319 6.61045 5.52902C6.68775 5.59345 6.80801 5.74377 6.85526 5.83826C6.86814 5.86403 6.88532 5.90698 6.9025 5.93275C6.9025 5.8898 6.80801 5.47749 6.79513 5.40018C6.74788 5.15966 6.735 5.16825 6.39141 5.16825H5.96191V5.19402C5.96191 5.2112 5.9748 5.20691 6.04781 5.22838C6.12942 5.24985 6.30551 5.31857 6.36993 5.36152Z" fill="#29292B"/>
<path fill-rule="evenodd" clip-rule="evenodd" d="M6.88999 5.91984C6.87281 5.89407 6.85563 5.85541 6.84275 5.82535C6.7955 5.73086 6.67525 5.57624 6.59794 5.51611C6.53351 5.46028 6.43473 5.38297 6.35742 5.34861C6.35742 5.37009 6.37031 5.40015 6.3789 5.42163L6.70531 6.58984H7.12192L7.58577 5.51611C7.60724 5.46887 7.7275 5.19829 7.73609 5.15534H7.31948L6.95012 6.10881C6.94583 6.1174 6.94583 6.1174 6.94153 6.1217C6.94153 6.09593 6.90288 5.93272 6.89858 5.91984H6.88999ZM10.1799 5.55906C10.1799 5.59772 10.2186 5.76951 10.2314 5.82105C10.2529 5.90266 10.2701 5.99285 10.2873 6.07875H9.97374L10.1799 5.55906ZM9.38104 6.59843C9.8363 6.59843 9.7547 6.63279 9.81053 6.49535C9.82771 6.4567 9.8406 6.41375 9.85348 6.37939H10.3517C10.356 6.41375 10.3689 6.4567 10.3775 6.49535C10.3861 6.54689 10.3903 6.59843 10.4204 6.59843C10.8112 6.59843 10.7726 6.6242 10.7511 6.52542C10.7425 6.49106 10.7382 6.46958 10.7296 6.43523C10.7168 6.3708 10.6996 6.31497 10.691 6.25484L10.5321 5.5247C10.5063 5.40445 10.4805 5.27989 10.4505 5.15964C10.3474 5.15964 10.0854 5.13816 10.0124 5.194C9.93938 5.24983 9.88355 5.42163 9.84489 5.50323C9.81053 5.57624 9.78047 5.64926 9.74611 5.72656C9.71605 5.80387 9.68169 5.87259 9.64733 5.94561C9.57002 6.10881 9.44976 6.41805 9.37675 6.55978C9.36816 6.58125 9.34668 6.60273 9.38104 6.60273V6.59843ZM8.43616 5.58913V5.63208C8.43616 5.79528 8.62514 5.93272 8.74969 5.98426C8.77975 5.99714 8.80982 6.01003 8.84418 6.0315C9.18348 6.21189 8.83129 6.41805 8.42328 6.25484C8.4018 6.24625 8.35026 6.22048 8.32879 6.22048C8.32449 6.26772 8.31161 6.32785 8.30302 6.3751L8.27725 6.53401C8.27725 6.57266 8.59078 6.61561 8.66379 6.61561C8.87424 6.61561 9.03315 6.60273 9.19636 6.49106C9.4154 6.34074 9.51418 6.00144 9.17059 5.79528C9.04604 5.72227 8.84418 5.66644 8.84418 5.55906C8.84418 5.41304 9.20495 5.41304 9.39393 5.51611C9.39822 5.45598 9.44547 5.26701 9.44547 5.20258C9.33809 5.15105 9.17918 5.14246 9.05033 5.14246C8.77116 5.14246 8.43616 5.30996 8.43616 5.59772V5.58913ZM7.63731 6.58984H8.03244L8.24289 5.34002C8.24718 5.30996 8.25148 5.28419 8.25577 5.25412C8.26007 5.21976 8.26866 5.194 8.26866 5.15964H7.87353C7.87353 5.20688 7.68455 6.27202 7.66308 6.40946L7.63301 6.58984H7.63731Z" fill="#FEFEFE"/>
<path fill-rule="evenodd" clip-rule="evenodd" d="M6.35333 5.34858C6.43064 5.38294 6.52942 5.46025 6.59384 5.51608C6.67115 5.58051 6.79141 5.73083 6.83865 5.82532C6.85154 5.85109 6.86872 5.89404 6.8859 5.91981C6.8859 5.87686 6.79141 5.46455 6.77853 5.38724C6.73128 5.14672 6.7184 5.15531 6.3748 5.15531H5.94531V5.18108C5.94531 5.19826 5.9582 5.19397 6.03121 5.21544C6.11281 5.23692 6.28891 5.30563 6.35333 5.34858Z" fill="#53D86A"/>
<path fill-rule="evenodd" clip-rule="evenodd" d="M15.4235 11.0995L15.445 11.0093C15.5566 10.9793 15.7284 10.9664 15.7671 11.0738C15.78 11.1124 15.7284 11.3701 15.7241 11.4474H15.6125C15.6082 11.4259 15.6168 11.4216 15.6082 11.4002C15.5824 11.4173 15.5309 11.4732 15.4407 11.4517C15.3161 11.4216 15.3204 11.237 15.4493 11.1811C15.5094 11.1554 15.5867 11.1554 15.6597 11.1554C15.6554 11.048 15.518 11.0823 15.4235 11.0995ZM15.7757 11.3486C15.8186 11.3572 16.0033 11.3959 15.9818 11.31C15.9689 11.2627 15.8573 11.2584 15.8229 11.1983C15.7843 11.1253 15.8315 11.0437 15.883 11.0136C15.9432 10.9793 16.0505 10.9964 16.1279 11.0007L16.1064 11.0909C16.042 11.0866 15.9646 11.0652 15.9389 11.121C15.9303 11.194 16.1622 11.1768 16.0892 11.3701C16.0677 11.4302 16.0291 11.4431 15.9561 11.4517C15.8745 11.4603 15.8358 11.456 15.7628 11.4474L15.7714 11.3486H15.7757ZM15.2946 11.4517H15.1744C15.1873 11.3787 15.2044 11.3014 15.2173 11.2284C15.2259 11.1682 15.2517 11.048 15.2517 10.9964L15.0584 11.4517H14.951L14.921 11.0007C14.8995 11.0351 14.8437 11.3787 14.8351 11.4474L14.7234 11.4517C14.7535 11.267 14.805 11.0823 14.8265 10.8934C14.8651 10.8805 14.9768 10.8891 15.0241 10.8891L15.0326 11.2541C15.0584 11.2327 15.1014 11.1124 15.1143 11.078C15.1357 11.0222 15.1744 10.9449 15.1916 10.8934H15.3934C15.3634 11.0738 15.3118 11.2713 15.2989 11.456L15.2946 11.4517ZM16.6991 12.0874C16.7163 12.053 16.7377 12.0616 16.7549 12.0272C16.7291 12.0272 16.6604 12.0315 16.6389 12.0229C16.6175 12.0143 16.5917 11.98 16.5831 11.9628H16.7764C16.8279 11.9628 16.8193 11.9671 16.8408 11.9327C16.858 11.9113 16.8709 11.9027 16.8838 11.8769H16.5101L16.4757 11.8125L16.9353 11.8082C16.9482 11.7781 16.9697 11.7566 16.9782 11.7223H16.4242L16.3898 11.6579H17.0126L17.047 11.5763H16.3641C16.3426 11.5634 16.3426 11.5333 16.334 11.5118L17.0727 11.5075L17.0942 11.4259H16.9009L16.8923 11.4474C16.8709 11.4646 16.7979 11.4517 16.7635 11.4517C16.785 11.3057 16.8279 11.1639 16.8451 10.9964H16.9611L16.9525 11.0609C16.9954 11.0394 16.9697 10.9964 17.0942 10.9964L17.0513 11.121C16.9782 11.121 16.9568 11.1382 16.9396 11.2069H17.0684L17.077 11.1768C17.0899 11.0995 17.0985 11.0866 17.12 11.0222L17.1157 10.9707C17.0813 10.9621 16.3598 10.9621 16.3168 10.9707L16.3125 10.9921L16.3813 10.9964C16.377 11.0995 16.3684 11.0952 16.3469 11.0995H16.2954L16.2782 11.2026H16.3684C16.4414 10.9063 16.6991 10.975 16.7549 11.0695C16.7764 11.1081 16.7764 11.1725 16.7678 11.2155C16.7549 11.2799 16.7678 11.2584 16.48 11.2584C16.4629 11.3186 16.5187 11.3486 16.5659 11.3572C16.6389 11.3701 16.6819 11.3443 16.742 11.3272L16.7248 11.4302C16.6604 11.456 16.5573 11.4603 16.4929 11.4388C16.4156 11.4173 16.3898 11.3701 16.3641 11.2928C16.3598 11.2885 16.3598 11.2928 16.3555 11.2713V11.2584H16.2653C16.2567 11.2928 16.2524 11.3143 16.2696 11.34L16.3426 11.3443L16.3168 11.4388C16.2782 11.4646 16.1794 11.456 16.145 11.4259C16.0978 11.3787 16.1579 11.1511 16.1751 11.0652C16.1837 11.0136 16.1923 10.9277 16.2052 10.8848H16.3039C16.334 10.8891 16.3168 10.8762 16.3254 10.8934H17.0985C17.0985 10.8676 17.0856 10.8289 17.077 10.8075H16.3168C16.3211 10.7817 16.3254 10.7559 16.3426 10.743H17.0556L17.0298 10.6571H16.3684L16.3941 10.5927H16.9954L16.9568 10.5111H16.4371C16.4457 10.4896 16.4629 10.451 16.4843 10.4424H16.9095C16.8923 10.4166 16.8666 10.3823 16.8494 10.3608H16.5316C16.5445 10.3393 16.5616 10.3136 16.5788 10.2964H16.7721C16.7506 10.2491 16.6991 10.2234 16.6819 10.189C16.6647 10.1847 16.5745 10.1074 16.553 10.0902C16.4285 10.0043 16.3082 9.95278 16.1579 9.91842C15.7757 9.82393 15.3848 9.89695 15.0842 10.1418C14.9253 10.2706 14.8136 10.3952 14.7191 10.5841C14.6934 10.6357 14.6719 10.6872 14.6504 10.743C14.5602 10.9793 14.5688 11.3014 14.6504 11.5333C14.659 11.5634 14.6719 11.5891 14.6805 11.6149C14.6976 11.6622 14.775 11.8039 14.805 11.8425C14.8866 11.9542 14.9639 12.0487 15.0799 12.1346C15.2216 12.242 15.2989 12.2763 15.4578 12.3365C15.4836 12.345 15.518 12.3536 15.5437 12.3622C15.8143 12.4309 16.1665 12.4009 16.407 12.2677C16.4328 12.2549 16.4543 12.242 16.48 12.2291C16.5058 12.2162 16.5273 12.199 16.553 12.1861C16.596 12.1604 16.6475 12.1131 16.6862 12.0831L16.6991 12.0874Z" fill="#E68824"/>
<path fill-rule="evenodd" clip-rule="evenodd" d="M18.7524 11.383C18.7868 11.4087 18.7352 11.4818 18.6966 11.4603L18.6751 11.4474V11.4431L18.6794 11.383C18.6579 11.4045 18.6665 11.4259 18.6579 11.413L18.6536 11.4173C18.6622 11.3271 18.7481 11.3486 18.7524 11.3873V11.383ZM17.5799 12.4223H17.5326C17.4596 12.4223 17.3909 12.4138 17.3179 12.4009C17.1762 12.3794 17.0044 12.3107 16.8927 12.2377C16.8669 12.2205 16.8455 12.2076 16.8197 12.1904C16.7896 12.1689 16.7166 12.1174 16.6908 12.0873C16.708 12.053 16.7295 12.0616 16.7467 12.0272C16.7209 12.0272 16.6522 12.0315 16.6307 12.0229C16.6092 12.0143 16.5835 11.98 16.5749 11.9628H16.7681C16.8197 11.9628 16.8111 11.9671 16.8326 11.9327C16.8498 11.9113 16.8626 11.9027 16.8755 11.8769H16.5019L16.4675 11.8125L16.9271 11.8082C16.9399 11.7781 16.9614 11.7566 16.97 11.7223H16.416L16.3816 11.6579H17.0044L17.0387 11.5762H16.3558C16.3344 11.5634 16.3344 11.5333 16.3258 11.5118L17.0645 11.5075L17.086 11.4259H16.8927L16.8841 11.4474L16.9013 11.3486C16.9142 11.3615 16.9013 11.3529 16.9185 11.3572H17.0989C17.1375 11.4388 17.305 11.4989 17.421 11.4431C17.4253 11.3873 17.4382 11.3701 17.4467 11.3271C17.3737 11.34 17.3265 11.3744 17.2492 11.3314C17.1976 11.3014 17.1762 11.237 17.1933 11.1639C17.2234 11.048 17.2749 10.9964 17.3909 11.005C17.4425 11.0093 17.4553 11.0222 17.494 11.0308L17.5069 10.9277C17.4425 10.8805 17.2835 10.8719 17.1805 10.9535C17.1418 10.9836 17.1418 11.0007 17.1117 11.0308L17.1074 10.9793C17.0731 10.9707 16.3515 10.9707 16.3086 10.9793L16.3215 10.9105H17.0946C17.0946 10.8848 17.0817 10.8461 17.0731 10.8246H16.3129C16.3172 10.7989 16.3215 10.7731 16.3387 10.7602H17.0516L17.0258 10.6743H16.3644L16.3902 10.6099H16.9915L16.9528 10.5283H16.4331C16.4417 10.5068 16.4589 10.4682 16.4804 10.4596H16.9056C16.8884 10.4338 16.8626 10.3994 16.8455 10.378H16.5276C16.5405 10.3565 16.5577 10.3307 16.5749 10.3135H16.7681C16.7467 10.2663 16.6951 10.2405 16.678 10.2062L16.8111 10.1031C16.8369 10.0859 16.8583 10.073 16.8841 10.0558C16.9657 10.0043 17.0344 9.97425 17.1246 9.93989C17.2792 9.88405 17.4811 9.84969 17.64 9.86687C17.9063 9.89694 18.1898 9.99572 18.3873 10.1804C18.499 10.2835 18.5763 10.3737 18.6536 10.5025C18.7696 10.6958 18.8297 10.9105 18.8297 11.1468C18.8297 11.3658 18.7953 11.4646 18.7352 11.6407C18.718 11.6922 18.645 11.8211 18.6107 11.8683C18.5334 11.9843 18.4346 12.0873 18.3229 12.1689C18.1855 12.272 18.1039 12.3107 17.9364 12.3708L17.7946 12.4095C17.7775 12.4138 17.756 12.4138 17.7474 12.4181C17.6873 12.4266 17.6271 12.4309 17.5713 12.4352L17.5799 12.4223ZM17.8548 11.3916L17.8505 11.4517L17.7388 11.4474L17.7345 11.4087C17.7044 11.4259 17.7044 11.4388 17.6572 11.4517C17.4296 11.5161 17.3823 11.1897 17.6701 11.1725H17.7474L17.7689 11.1639C17.7946 11.0566 17.6014 11.1038 17.5412 11.1081C17.5584 11.0179 17.5498 10.9836 17.7474 10.9921C17.9836 11.005 17.8505 11.2756 17.8505 11.3916H17.8548ZM17.8934 11.4517C17.9149 11.3014 17.9621 11.1511 17.975 10.9964H18.091L18.0867 11.0609C18.1168 11.0394 18.1382 10.9921 18.2284 10.9964C18.2155 11.0437 18.1941 11.0523 18.1898 11.121C18.091 11.1253 18.0824 11.1468 18.0652 11.2455C18.0523 11.3143 18.0394 11.3787 18.0309 11.4517H17.8977H17.8934ZM18.5248 11.0523C18.5419 11.0222 18.5505 10.9277 18.5548 10.8934H18.6837C18.6579 11.048 18.5935 11.3057 18.5849 11.456H18.4603L18.4646 11.4045L18.4603 11.4087L18.4217 11.4345C18.3143 11.4904 18.1769 11.4388 18.1769 11.267C18.1769 11.0222 18.3787 10.9578 18.4775 11.0179C18.499 11.0308 18.5033 11.0437 18.5248 11.0566V11.0523Z" fill="#EF871A"/>
<path fill-rule="evenodd" clip-rule="evenodd" d="M15.2952 11.4517C15.3081 11.267 15.3597 11.0694 15.3897 10.8891H15.1879C15.1707 10.9449 15.1363 11.0222 15.1106 11.0737C15.0934 11.1081 15.0547 11.2284 15.029 11.2498L15.0204 10.8848C14.9731 10.8848 14.8615 10.8762 14.8228 10.8891C14.8013 11.078 14.7498 11.2627 14.7197 11.4474L14.8314 11.4431C14.84 11.3744 14.8958 11.0308 14.9173 10.9964L14.9474 11.4474H15.0547L15.248 10.9921C15.248 11.0437 15.2222 11.1639 15.2136 11.2241C15.2008 11.3014 15.1879 11.3744 15.1707 11.4474H15.291L15.2952 11.4517ZM18.3017 11.2412C18.3017 11.078 18.495 11.0351 18.495 11.1768C18.495 11.3787 18.3017 11.4044 18.3017 11.2455V11.2369V11.2412ZM18.525 11.048C18.5035 11.0351 18.4993 11.0222 18.4778 11.0093C18.3747 10.9492 18.1771 11.0179 18.1771 11.2584C18.1771 11.4302 18.3146 11.4818 18.4219 11.4259L18.4606 11.4002L18.4649 11.3959L18.4606 11.4474H18.5852C18.5937 11.3014 18.6582 11.0394 18.6839 10.8848H18.5551C18.5508 10.9234 18.5379 11.0179 18.525 11.0437V11.048ZM15.6302 11.2369C15.6431 11.2756 15.6174 11.3228 15.5959 11.34C15.51 11.4044 15.4198 11.3014 15.5143 11.2498C15.5444 11.2327 15.5916 11.2284 15.6302 11.2369ZM15.4241 11.0952C15.5186 11.078 15.656 11.0437 15.6603 11.151C15.5916 11.151 15.51 11.151 15.4499 11.1768C15.321 11.2327 15.3167 11.4216 15.4413 11.4474C15.5315 11.4689 15.583 11.413 15.6088 11.3959C15.6174 11.413 15.6088 11.4173 15.6131 11.4431H15.7247C15.729 11.3658 15.7806 11.1081 15.7677 11.0694C15.729 10.9621 15.5572 10.975 15.4456 11.005L15.4241 11.0952ZM17.7562 11.2498C17.7519 11.3185 17.7047 11.3959 17.6231 11.3615C17.5801 11.3443 17.5587 11.2284 17.7562 11.2498ZM17.7391 11.4087C17.7476 11.4216 17.7476 11.4173 17.7476 11.4431H17.8507C17.8464 11.4216 17.8464 11.4044 17.855 11.3873C17.855 11.2713 17.9882 11.0007 17.7519 10.9878C17.5544 10.9793 17.563 11.0136 17.5458 11.1038C17.6059 11.0952 17.7992 11.048 17.7734 11.1596L17.7519 11.1682H17.6746C17.3912 11.1897 17.4341 11.5118 17.6617 11.4474C17.709 11.4345 17.709 11.4216 17.7391 11.4044V11.4087ZM16.4978 11.1682C16.4978 11.0609 16.661 11.0523 16.6567 11.1639C16.6181 11.1768 16.5408 11.1725 16.4978 11.1682ZM16.369 11.2026L16.3647 11.3014C16.3862 11.3787 16.4162 11.4216 16.4935 11.4474C16.558 11.4689 16.6653 11.4646 16.7255 11.4388L16.7426 11.3357C16.6825 11.3529 16.6438 11.3787 16.5665 11.3658C16.5193 11.3572 16.4635 11.3271 16.4806 11.267C16.7684 11.267 16.7555 11.2885 16.7684 11.2241C16.777 11.1768 16.777 11.1167 16.7555 11.078C16.6997 10.9793 16.442 10.9105 16.369 11.2112V11.2026Z" fill="#FCFEFC"/>
<path fill-rule="evenodd" clip-rule="evenodd" d="M17.1205 11.0179C17.099 11.0823 17.0861 11.0952 17.0775 11.1725V11.2713L17.1076 11.3486C17.1462 11.4302 17.3137 11.4903 17.4297 11.4345C17.434 11.3786 17.4469 11.3614 17.4555 11.3185C17.3825 11.3314 17.3352 11.3657 17.2579 11.3228C17.2064 11.2927 17.1849 11.2283 17.2021 11.1553C17.2321 11.0393 17.2837 10.9878 17.3996 10.9964C17.4512 11.0007 17.4641 11.0136 17.5027 11.0222L17.5156 10.9191C17.4512 10.8718 17.2923 10.8632 17.1892 10.9448C17.1505 10.9749 17.1505 10.9921 17.1205 11.0222V11.0179ZM15.7762 11.3443L15.7676 11.4431C15.8406 11.4516 15.8835 11.4602 15.9608 11.4473C16.0339 11.4388 16.0682 11.4259 16.094 11.3657C16.167 11.1725 15.9308 11.1897 15.9437 11.1166C15.9694 11.0608 16.0425 11.0823 16.1112 11.0866L16.1326 10.9964C16.0553 10.9921 15.948 10.9749 15.8878 11.0093C15.8363 11.0393 15.7891 11.1209 15.8277 11.1939C15.8621 11.2541 15.9737 11.2584 15.9866 11.3056C16.0081 11.3915 15.8234 11.3529 15.7805 11.3443H15.7762Z" fill="#FCFEFC"/>
<path fill-rule="evenodd" clip-rule="evenodd" d="M16.2659 11.2627L16.2745 11.1983L16.2917 11.0952H16.3432C16.369 11.0909 16.3776 11.0952 16.3776 10.9922L16.3089 10.9879L16.3132 10.9664L16.3261 10.8977C16.3218 10.8805 16.3389 10.8934 16.3046 10.8891H16.2058C16.1929 10.9363 16.1843 11.0179 16.1757 11.0695C16.1586 11.1554 16.0984 11.383 16.1457 11.4302C16.1757 11.4603 16.2788 11.4689 16.3175 11.4431L16.3432 11.3486L16.2702 11.3443C16.253 11.3186 16.2573 11.2971 16.2659 11.2627ZM16.893 11.4431L16.9102 11.3443L16.9231 11.2713L16.9359 11.2026C16.9531 11.1339 16.9746 11.1167 17.0476 11.1167L17.0906 10.9922C16.9703 10.9965 16.9918 11.0351 16.9488 11.0566L16.9574 10.9922H16.8415C16.8243 11.1597 16.7813 11.3014 16.7598 11.4474C16.7942 11.4474 16.8672 11.456 16.8887 11.4431H16.893ZM17.8937 11.4474H18.0268C18.0354 11.3701 18.0483 11.31 18.0612 11.2413C18.0784 11.1468 18.087 11.1253 18.1858 11.1167C18.1943 11.048 18.2115 11.0437 18.2244 10.9922C18.1342 10.9879 18.1127 11.0351 18.0827 11.0566L18.087 10.9922H17.971C17.9581 11.1468 17.9109 11.2971 17.8894 11.4474H17.8937Z" fill="#FCFEFC"/>
<path fill-rule="evenodd" clip-rule="evenodd" d="M18.3018 11.2412V11.2498C18.3018 11.4087 18.495 11.3829 18.495 11.1811C18.495 11.0393 18.3018 11.078 18.3018 11.2455V11.2412Z" fill="#EF871A"/>
<path fill-rule="evenodd" clip-rule="evenodd" d="M15.6299 11.2369C15.5912 11.2326 15.544 11.2326 15.5139 11.2498C15.4194 11.3013 15.5096 11.4044 15.5955 11.34C15.617 11.3228 15.6428 11.2755 15.6299 11.2369Z" fill="#E68824"/>
<path fill-rule="evenodd" clip-rule="evenodd" d="M17.7557 11.2498C17.5582 11.2284 17.5796 11.3443 17.6226 11.3615C17.7042 11.3959 17.7514 11.3143 17.7557 11.2498Z" fill="#EF871A"/>
<path fill-rule="evenodd" clip-rule="evenodd" d="M16.9094 11.3443C16.9223 11.3572 16.9094 11.3486 16.9266 11.3529H17.1069L17.0769 11.2755H16.9223L16.9094 11.3486V11.3443ZM16.4971 11.1682C16.5357 11.1725 16.6173 11.1768 16.656 11.1639C16.6603 11.0479 16.5014 11.0608 16.4971 11.1682Z" fill="#E68824"/>
<path fill-rule="evenodd" clip-rule="evenodd" d="M16.9399 11.2025L16.9227 11.2713H17.0774V11.1725L17.0688 11.2025H16.9399ZM16.2656 11.2627H16.3558V11.2756C16.3601 11.2927 16.3601 11.2884 16.3644 11.297L16.3687 11.1983H16.2785L16.2699 11.2627H16.2656Z" fill="#ED871B"/>
<path fill-rule="evenodd" clip-rule="evenodd" d="M18.6963 11.456C18.6791 11.4388 18.7177 11.456 18.6834 11.4431L18.6963 11.4388L18.6877 11.3744L18.7263 11.3787L18.7349 11.3744L18.7392 11.3701C18.7392 11.3873 18.7349 11.383 18.7521 11.3787C18.7521 11.34 18.6619 11.3185 18.6533 11.4087C18.6533 11.4087 18.6576 11.4002 18.6576 11.4044C18.6662 11.4173 18.6576 11.3959 18.6791 11.3744L18.6748 11.4345V11.4388L18.6963 11.4517V11.456Z" fill="#F9C084"/>
<path fill-rule="evenodd" clip-rule="evenodd" d="M18.7222 11.383C18.7222 11.3958 18.7265 11.4087 18.7051 11.4044C18.6836 11.4001 18.6922 11.3958 18.6922 11.3787L18.7222 11.383ZM18.6922 11.4388V11.4173C18.7265 11.4216 18.7051 11.413 18.7222 11.4302C18.7308 11.4388 18.7351 11.4474 18.7394 11.4517L18.6965 11.4603C18.7394 11.4817 18.791 11.413 18.7523 11.383C18.7523 11.3958 18.7566 11.4044 18.7523 11.4173C18.748 11.4345 18.748 11.4302 18.7394 11.4388C18.7094 11.4044 18.7351 11.4216 18.7308 11.3787L18.7222 11.383L18.6836 11.3787L18.6922 11.4431V11.4388Z" fill="#FDE6CD"/>
<path fill-rule="evenodd" clip-rule="evenodd" d="M18.6926 11.4387L18.6797 11.443C18.714 11.4559 18.6797 11.4387 18.6926 11.4559L18.7355 11.4473C18.7312 11.443 18.7269 11.4344 18.7183 11.4258C18.7012 11.4087 18.7269 11.4173 18.6883 11.413V11.4344L18.6926 11.4387Z" fill="#F0881A"/>
<path fill-rule="evenodd" clip-rule="evenodd" d="M17.7383 11.4088L17.7426 11.4474L17.8542 11.4517L17.8585 11.3916C17.8499 11.4088 17.8499 11.4217 17.8542 11.4474H17.7512C17.7512 11.4217 17.7512 11.426 17.7426 11.4131L17.7383 11.4088Z" fill="#FBCC9A"/>
<path fill-rule="evenodd" clip-rule="evenodd" d="M18.7519 11.383C18.7347 11.3873 18.739 11.3916 18.739 11.3744L18.7347 11.3787C18.739 11.4216 18.7133 11.4045 18.7433 11.4388C18.7519 11.4302 18.7519 11.4345 18.7562 11.4173V11.383H18.7519Z" fill="#F0881A"/>
<path fill-rule="evenodd" clip-rule="evenodd" d="M18.7219 11.383L18.6919 11.3787C18.6919 11.3958 18.6876 11.4044 18.7048 11.4044C18.7262 11.4087 18.7219 11.3958 18.7219 11.383Z" fill="#FE9526"/>
<path fill-rule="evenodd" clip-rule="evenodd" d="M12.2928 22L8.43164 18.1131H9.9048V13.8998H14.8139V18.1131H16.2913L12.4302 22H12.2928Z" fill="#DCDDDF"/>
<path fill-rule="evenodd" clip-rule="evenodd" d="M12.3271 13.8998H14.8139V18.1131H16.2914L12.4302 22H12.3271V13.8998Z" fill="#F6F6F6"/>
<defs>
<linearGradient id="paint0_linear_1240_570" x1="12.3608" y1="13.4092" x2="12.3608" y2="3.99884" gradientUnits="userSpaceOnUse">
<stop stop-color="#E57A09"/>
<stop offset="1" stop-color="#333596"/>
</linearGradient>
<linearGradient id="paint1_linear_1240_570" x1="8.73245" y1="3.75034" x2="10.5757" y2="13.6578" gradientUnits="userSpaceOnUse">
<stop stop-color="#E89238"/>
<stop offset="1" stop-color="#323497"/>
</linearGradient>
</defs>
</svg>
