<svg width="19" height="18" viewBox="0 0 19 18" fill="none" xmlns="http://www.w3.org/2000/svg">
<path d="M17.6084 2.00928H2.5791C1.96425 2.00928 1.46582 2.47859 1.46582 3.05752V10.9543C1.46582 11.5332 1.96425 12.0025 2.5791 12.0025H17.6084C18.2232 12.0025 18.7217 11.5332 18.7217 10.9543V3.05752C18.7217 2.47859 18.2232 2.00928 17.6084 2.00928Z" fill="#E81515"/>
<path d="M17.6084 2.00928H16.4951C16.7904 2.00928 17.0735 2.11972 17.2823 2.3163C17.4911 2.51288 17.6084 2.77951 17.6084 3.05752V10.9543C17.6084 11.2323 17.4911 11.4989 17.2823 11.6955C17.0735 11.8921 16.7904 12.0025 16.4951 12.0025H17.6084C17.9037 12.0025 18.1868 11.8921 18.3956 11.6955C18.6044 11.4989 18.7217 11.2323 18.7217 10.9543V3.05752C18.7217 2.77951 18.6044 2.51288 18.3956 2.3163C18.1868 2.11972 17.9037 2.00928 17.6084 2.00928Z" fill="#BE0000"/>
<path d="M18.7217 3.82617H1.46582V6.06242H18.7217V3.82617Z" fill="#57565C"/>
<path d="M18.7217 3.82617H17.6084V6.06242H18.7217V3.82617Z" fill="#3C3B41"/>
<path d="M16.4209 5.36328H1.3916C0.776753 5.36328 0.27832 5.8326 0.27832 6.41152V14.3083C0.27832 14.8872 0.776753 15.3565 1.3916 15.3565H16.4209C17.0357 15.3565 17.5342 14.8872 17.5342 14.3083V6.41152C17.5342 5.8326 17.0357 5.36328 16.4209 5.36328Z" fill="#E81515"/>
<path d="M16.4209 5.36328H15.3076C15.6029 5.36328 15.886 5.47372 16.0948 5.6703C16.3036 5.86689 16.4209 6.13351 16.4209 6.41152V14.3083C16.4209 14.5863 16.3036 14.8529 16.0948 15.0495C15.886 15.2461 15.6029 15.3565 15.3076 15.3565H16.4209C16.7162 15.3565 16.9993 15.2461 17.2081 15.0495C17.4169 14.8529 17.5342 14.5863 17.5342 14.3083V6.41152C17.5342 6.13351 17.4169 5.86689 17.2081 5.6703C16.9993 5.47372 16.7162 5.36328 16.4209 5.36328Z" fill="#BE0000"/>
<path d="M15.3818 6.93604H11.2627C11.0577 6.93604 10.8916 7.09247 10.8916 7.28545V7.70475C10.8916 7.89772 11.0577 8.05416 11.2627 8.05416H15.3818C15.5868 8.05416 15.7529 7.89772 15.7529 7.70475V7.28545C15.7529 7.09247 15.5868 6.93604 15.3818 6.93604Z" fill="white"/>
<path d="M15.3818 6.93604H14.2686C14.367 6.93604 14.4614 6.97285 14.531 7.03838C14.6006 7.1039 14.6396 7.19278 14.6396 7.28545V7.70475C14.6396 7.79742 14.6006 7.88629 14.531 7.95182C14.4614 8.01735 14.367 8.05416 14.2686 8.05416H15.3818C15.4803 8.05416 15.5746 8.01735 15.6442 7.95182C15.7138 7.88629 15.7529 7.79742 15.7529 7.70475V7.28545C15.7529 7.19278 15.7138 7.1039 15.6442 7.03838C15.5746 6.97285 15.4803 6.93604 15.3818 6.93604Z" fill="#E1E1E3"/>
<path d="M4.28613 6.93604H2.43066C2.22571 6.93604 2.05957 7.09247 2.05957 7.28545V8.36863C2.05957 8.56161 2.22571 8.71805 2.43066 8.71805H4.28613C4.49108 8.71805 4.65723 8.56161 4.65723 8.36863V7.28545C4.65723 7.09247 4.49108 6.93604 4.28613 6.93604Z" fill="#F8BE32"/>
<path d="M4.28619 6.93604H3.49316C3.59158 6.93604 3.68597 6.97285 3.75557 7.03838C3.82516 7.1039 3.86426 7.19278 3.86426 7.28545V8.36863C3.86426 8.4613 3.82516 8.55018 3.75557 8.61571C3.68597 8.68123 3.59158 8.71805 3.49316 8.71805H4.28619C4.38461 8.71805 4.479 8.68123 4.54859 8.61571C4.61819 8.55018 4.65729 8.4613 4.65729 8.36863V7.28545C4.65729 7.19278 4.61819 7.1039 4.54859 7.03838C4.479 6.97285 4.38461 6.93604 4.28619 6.93604Z" fill="#FED030"/>
<path d="M7.86979 12.9982H2.05957C1.98576 12.9982 1.91496 12.9706 1.86277 12.9215C1.81057 12.8723 1.78125 12.8057 1.78125 12.7362C1.78125 12.6667 1.81057 12.6 1.86277 12.5509C1.91496 12.5017 1.98576 12.4741 2.05957 12.4741H7.86979C7.9436 12.4741 8.01439 12.5017 8.06659 12.5509C8.11878 12.6 8.14811 12.6667 8.14811 12.7362C8.14811 12.8057 8.11878 12.8723 8.06659 12.9215C8.01439 12.9706 7.9436 12.9982 7.86979 12.9982ZM5.25061 14.0465H2.07219C1.99837 14.0465 1.92758 14.0189 1.87539 13.9697C1.82319 13.9206 1.79387 13.8539 1.79387 13.7844C1.79387 13.7149 1.82319 13.6483 1.87539 13.5991C1.92758 13.55 1.99837 13.5224 2.07219 13.5224H5.25061C5.32442 13.5224 5.39521 13.55 5.44741 13.5991C5.4996 13.6483 5.52893 13.7149 5.52893 13.7844C5.52893 13.8539 5.4996 13.9206 5.44741 13.9697C5.39521 14.0189 5.32442 14.0465 5.25061 14.0465Z" fill="white"/>
<path d="M14.918 14.0987C15.3791 14.0987 15.7529 13.7467 15.7529 13.3125C15.7529 12.8784 15.3791 12.5264 14.918 12.5264C14.4568 12.5264 14.083 12.8784 14.083 13.3125C14.083 13.7467 14.4568 14.0987 14.918 14.0987Z" fill="#F9A242"/>
<path d="M14.918 12.5264C14.8231 12.5264 14.729 12.5416 14.6396 12.5714C14.8024 12.6257 14.9432 12.7261 15.0428 12.8588C15.1425 12.9915 15.196 13.15 15.196 13.3125C15.196 13.4751 15.1425 13.6336 15.0428 13.7663C14.9432 13.899 14.8024 13.9994 14.6396 14.0537C14.7543 14.0919 14.8764 14.106 14.9975 14.0952C15.1186 14.0843 15.2357 14.0487 15.3406 13.9908C15.4455 13.9328 15.5358 13.854 15.605 13.7598C15.6742 13.6657 15.7207 13.5584 15.7412 13.4455C15.7618 13.3326 15.7559 13.2169 15.724 13.1064C15.6921 12.9959 15.635 12.8932 15.5566 12.8057C15.4782 12.7182 15.3804 12.6478 15.2701 12.5995C15.1598 12.5513 15.0396 12.5263 14.918 12.5264Z" fill="#F69531"/>
<path d="M13.8047 14.0987C14.2658 14.0987 14.6396 13.7467 14.6396 13.3125C14.6396 12.8784 14.2658 12.5264 13.8047 12.5264C13.3436 12.5264 12.9697 12.8784 12.9697 13.3125C12.9697 13.7467 13.3436 14.0987 13.8047 14.0987Z" fill="#F8BE32"/>
<path d="M13.8047 12.5264C13.7099 12.5264 13.6157 12.5416 13.5264 12.5714C13.6891 12.6257 13.8299 12.7261 13.9296 12.8588C14.0292 12.9915 14.0827 13.15 14.0827 13.3125C14.0827 13.4751 14.0292 13.6336 13.9296 13.7663C13.8299 13.899 13.6891 13.9994 13.5264 14.0537C13.641 14.0919 13.7632 14.106 13.8842 14.0952C14.0053 14.0843 14.1224 14.0487 14.2273 13.9908C14.3323 13.9328 14.4225 13.854 14.4917 13.7598C14.5609 13.6657 14.6074 13.5584 14.628 13.4455C14.6485 13.3326 14.6427 13.2169 14.6108 13.1064C14.5789 12.9959 14.5217 12.8932 14.4433 12.8057C14.3649 12.7182 14.2671 12.6478 14.1568 12.5995C14.0465 12.5513 13.9263 12.5263 13.8047 12.5264Z" fill="#FED030"/>
<path d="M4.48438 11.1813H2.07227C1.99845 11.1813 1.92766 11.1537 1.87546 11.1046C1.82327 11.0554 1.79395 10.9888 1.79395 10.9193C1.79395 10.8498 1.82327 10.7831 1.87546 10.734C1.92766 10.6848 1.99845 10.6572 2.07227 10.6572H4.48438C4.55819 10.6572 4.62898 10.6848 4.68118 10.734C4.73337 10.7831 4.7627 10.8498 4.7627 10.9193C4.7627 10.9888 4.73337 11.0554 4.68118 11.1046C4.62898 11.1537 4.55819 11.1813 4.48438 11.1813ZM8.24021 11.1813H5.82811C5.75429 11.1813 5.6835 11.1537 5.6313 11.1046C5.57911 11.0554 5.54979 10.9888 5.54979 10.9193C5.54979 10.8498 5.57911 10.7831 5.6313 10.734C5.6835 10.6848 5.75429 10.6572 5.82811 10.6572H8.24021C8.31403 10.6572 8.38482 10.6848 8.43702 10.734C8.48921 10.7831 8.51853 10.8498 8.51853 10.9193C8.51853 10.9888 8.48921 11.0554 8.43702 11.1046C8.38482 11.1537 8.31403 11.1813 8.24021 11.1813ZM11.9964 11.1813H9.58432C9.5105 11.1813 9.43971 11.1537 9.38751 11.1046C9.33532 11.0554 9.306 10.9888 9.306 10.9193C9.306 10.8498 9.33532 10.7831 9.38751 10.734C9.43971 10.6848 9.5105 10.6572 9.58432 10.6572H11.9964C12.0702 10.6572 12.141 10.6848 12.1932 10.734C12.2454 10.7831 12.2747 10.8498 12.2747 10.9193C12.2747 10.9888 12.2454 11.0554 12.1932 11.1046C12.141 11.1537 12.0702 11.1813 11.9964 11.1813ZM15.7526 11.1813H13.3405C13.2667 11.1813 13.1959 11.1537 13.1437 11.1046C13.0915 11.0554 13.0622 10.9888 13.0622 10.9193C13.0622 10.8498 13.0915 10.7831 13.1437 10.734C13.1959 10.6848 13.2667 10.6572 13.3405 10.6572H15.7526C15.8265 10.6572 15.8972 10.6848 15.9494 10.734C16.0016 10.7831 16.031 10.8498 16.031 10.9193C16.031 10.9888 16.0016 11.0554 15.9494 11.1046C15.8972 11.1537 15.8265 11.1813 15.7526 11.1813Z" fill="white"/>
</svg>
