<svg width="28" height="28" viewBox="0 0 28 28" fill="none" xmlns="http://www.w3.org/2000/svg">
<rect width="28" height="28" fill="#1E1E1E"/>
<g clip-path="url(#clip0_0_1)">
<rect width="390" height="1089" transform="translate(-312 -482)" fill="#AEDEF3"/>
<g filter="url(#filter0_d_0_1)">
<rect x="-280" y="-143" width="320" height="181" rx="15" fill="#EAE9EC"/>
</g>
<circle cx="14" cy="14" r="14" fill="#ABA8A8"/>
<path d="M20.6 9.786C18.269 9.555 15.924 9.436 13.586 9.436C12.2 9.436 10.814 9.506 9.428 9.646L8 9.786M11.85 9.079L12.004 8.162C12.116 7.497 12.2 7 13.383 7H15.217C16.4 7 16.491 7.525 16.596 8.169L16.75 9.079M19.095 11.998L18.64 19.047C18.563 20.146 18.5 21 16.547 21H12.053C10.1 21 10.037 20.146 9.96 19.047L9.505 11.998M13.131 17.15H15.462M12.55 14.35H16.05" stroke="#EAE9EC" stroke-linecap="round" stroke-linejoin="round"/>
</g>
<defs>
<filter id="filter0_d_0_1" x="-315" y="-174" width="390" height="251" filterUnits="userSpaceOnUse" color-interpolation-filters="sRGB">
<feFlood flood-opacity="0" result="BackgroundImageFix"/>
<feColorMatrix in="SourceAlpha" type="matrix" values="0 0 0 0 0 0 0 0 0 0 0 0 0 0 0 0 0 0 127 0" result="hardAlpha"/>
<feOffset dy="4"/>
<feGaussianBlur stdDeviation="17.5"/>
<feComposite in2="hardAlpha" operator="out"/>
<feColorMatrix type="matrix" values="0 0 0 0 0 0 0 0 0 0 0 0 0 0 0 0 0 0 0.25 0"/>
<feBlend mode="normal" in2="BackgroundImageFix" result="effect1_dropShadow_0_1"/>
<feBlend mode="normal" in="SourceGraphic" in2="effect1_dropShadow_0_1" result="shape"/>
</filter>
<clipPath id="clip0_0_1">
<rect width="390" height="1089" fill="white" transform="translate(-312 -482)"/>
</clipPath>
</defs>
</svg>
