<svg width="22" height="22" viewBox="0 0 22 22" fill="none" xmlns="http://www.w3.org/2000/svg">
<circle cx="11" cy="11" r="11" fill="#E81615"/>
<path d="M14.6943 6.38406L11.2322 9.84615L7.77015 6.38406C7.61712 6.23103 7.40956 6.14506 7.19313 6.14506C6.97671 6.14506 6.76915 6.23103 6.61612 6.38406C6.46309 6.5371 6.37711 6.74466 6.37711 6.96108C6.37711 7.1775 6.46309 7.38506 6.61612 7.53809L10.0782 11.0002L6.61612 14.4623C6.46309 14.6153 6.37711 14.8229 6.37711 15.0393C6.37711 15.2557 6.46309 15.4633 6.61612 15.6163C6.76915 15.7693 6.97671 15.8553 7.19313 15.8553C7.40956 15.8553 7.61712 15.7693 7.77015 15.6163L11.2322 12.1542L14.6943 15.6163C14.8474 15.7693 15.0549 15.8553 15.2713 15.8553C15.4878 15.8553 15.6953 15.7693 15.8484 15.6163C16.0014 15.4633 16.0874 15.2557 16.0874 15.0393C16.0874 14.8229 16.0014 14.6153 15.8484 14.4623L12.3863 11.0002L15.8484 7.53809C16.0014 7.38506 16.0874 7.1775 16.0874 6.96108C16.0874 6.74466 16.0014 6.5371 15.8484 6.38406C15.6953 6.23103 15.4878 6.14506 15.2713 6.14506C15.0549 6.14506 14.8474 6.23103 14.6943 6.38406Z" fill="white"/>
</svg>
