<svg width="23" height="23" viewBox="0 0 23 23" fill="none" xmlns="http://www.w3.org/2000/svg">
<circle cx="11.5" cy="11.5" r="11.5" fill="#F8BE32"/>
<path d="M6.99448 17.7727H7.05917L10.0564 17.4986C10.3847 17.4658 10.6918 17.3206 10.9261 17.0874L17.3949 10.5952C17.646 10.329 17.7817 9.9738 17.7722 9.60738C17.7628 9.24095 17.609 8.89322 17.3446 8.64038L15.3752 6.66387C15.1182 6.42156 14.7814 6.28253 14.4288 6.27322C14.0763 6.26391 13.7327 6.38497 13.4633 6.61337L6.99448 13.1056C6.76216 13.3407 6.6175 13.6489 6.58479 13.9784L6.27573 16.9864C6.26604 17.0921 6.2797 17.1986 6.31573 17.2983C6.35176 17.3981 6.40927 17.4886 6.48417 17.5635C6.55133 17.6304 6.63098 17.6833 6.71855 17.7192C6.80612 17.7551 6.89989 17.7733 6.99448 17.7727ZM14.3761 7.67376L16.3383 9.64306L14.9008 11.0497L12.9746 9.11647L14.3761 7.67376ZM7.97918 14.101L12.0258 10.0687L13.9664 12.0163L9.94139 16.0559L7.78512 16.2579L7.97918 14.101Z" fill="white"/>
</svg>
