<svg width="25" height="25" viewBox="0 0 25 25" fill="none" xmlns="http://www.w3.org/2000/svg">
<rect x="5" y="5" width="15" height="15" fill="white"/>
<g clip-path="url(#clip0_2_72)">
<path fill-rule="evenodd" clip-rule="evenodd" d="M12.5 0C9.18479 0 6.00537 1.31696 3.66117 3.66117C1.31696 6.00537 0 9.18479 0 12.5C0 15.8152 1.31696 18.9946 3.66117 21.3388C6.00537 23.683 9.18479 25 12.5 25C15.8152 25 18.9946 23.683 21.3388 21.3388C23.683 18.9946 25 15.8152 25 12.5C25 9.18479 23.683 6.00537 21.3388 3.66117C18.9946 1.31696 15.8152 0 12.5 0ZM7.459 8C7.46033 7.99999 7.46167 7.99999 7.463 8C7.47932 7.9992 7.49568 7.9992 7.512 8C7.52866 7.99917 7.54534 7.99917 7.562 8H17.472C17.4807 7.99977 17.4893 7.99977 17.498 8C17.5137 7.99926 17.5293 7.99926 17.545 8C17.5618 8.00248 17.5785 8.00582 17.595 8.01C17.5967 8.00999 17.5983 8.00999 17.6 8.01C17.6151 8.01264 17.6302 8.01598 17.645 8.02C17.646 8.02 17.647 8.02 17.648 8.02C17.6626 8.02434 17.6769 8.02935 17.691 8.035C17.6923 8.03499 17.6937 8.03499 17.695 8.035C17.7096 8.04033 17.724 8.04634 17.738 8.053C17.7387 8.053 17.7393 8.053 17.74 8.053C17.799 8.08209 17.8517 8.12253 17.895 8.172C17.8947 8.172 17.8953 8.172 17.895 8.172C17.938 8.22246 17.9716 8.28099 17.9918 8.34416C18.012 8.40734 18.0195 8.47391 18.0137 8.53998C18.0079 8.60606 17.9891 8.67033 17.9582 8.72905C17.9274 8.78777 17.8851 8.83976 17.834 8.882L14.014 12.702V17.996C14.0139 18.0815 13.9919 18.1656 13.9501 18.2401C13.9082 18.3147 13.848 18.3773 13.775 18.422C13.7021 18.4666 13.6189 18.4918 13.5335 18.4951C13.4481 18.4985 13.3632 18.4798 13.287 18.441L11.309 17.441C11.2264 17.3996 11.1568 17.3361 11.1081 17.2575C11.0594 17.179 11.0334 17.0884 11.033 16.996V12.723L7.248 8.937C7.246 8.93701 7.244 8.93701 7.242 8.937C7.14677 8.88435 7.07132 8.80207 7.02709 8.70266C6.98287 8.60324 6.97228 8.49211 6.99694 8.38612C7.02159 8.28014 7.08015 8.1851 7.16372 8.11541C7.24729 8.04573 7.35031 8.00521 7.459 8ZM8.721 9.002L11.812 12.094C11.874 12.1547 11.9192 12.2305 11.943 12.314C12.0025 12.3993 12.034 12.501 12.033 12.605V16.693L13.013 17.189V12.602C13.0115 12.5197 13.0304 12.4383 13.068 12.365C13.0867 12.2617 13.1374 12.1669 13.213 12.094L16.305 9.002H8.721Z" fill="#219EBC"/>
</g>
<defs>
<clipPath id="clip0_2_72">
<rect width="25" height="25" fill="white"/>
</clipPath>
</defs>
</svg>
