<svg width="24" height="24" viewBox="0 0 24 24" fill="none" xmlns="http://www.w3.org/2000/svg">
<path d="M12 24C18.6274 24 24 18.6274 24 12C24 5.37258 18.6274 0 12 0C5.37258 0 0 5.37258 0 12C0 18.6274 5.37258 24 12 24Z" fill="#50B748"/>
<path d="M14.5252 23.7171C14.7553 23.6725 14.9841 23.6211 15.2112 23.5631C15.5963 23.4555 15.9757 23.3286 16.3482 23.1831C16.7211 23.0388 17.0865 22.8759 17.4432 22.6951C17.7999 22.5136 18.1473 22.3143 18.4842 22.0981C18.8206 21.8818 19.146 21.6489 19.4592 21.4001C19.7729 21.151 20.0739 20.8863 20.3612 20.6071C20.6479 20.3286 20.9206 20.0359 21.1782 19.7301C21.4359 19.4241 21.6782 19.1053 21.9042 18.7751C22.13 18.4454 22.3393 18.1047 22.5312 17.7541C22.7231 17.403 22.8973 17.0426 23.0532 16.6741C23.2092 16.3055 23.3467 15.9294 23.4652 15.5471C23.5666 15.2124 23.6534 14.8734 23.7252 14.5311L16.5952 7.4021C15.993 6.7973 15.2773 6.31755 14.489 5.99044C13.7008 5.66334 12.8556 5.49533 12.0022 5.4961C11.148 5.49517 10.302 5.66307 9.51294 5.99017C8.72385 6.31727 8.0072 6.79711 7.40417 7.4021C6.79964 8.00531 6.32001 8.72183 5.99276 9.51065C5.66552 10.2995 5.49707 11.1451 5.49707 11.9991C5.49707 12.8531 5.66552 13.6987 5.99276 14.4875C6.32001 15.2764 6.79964 15.9929 7.40417 16.5961L14.5252 23.7171Z" fill="#10A711"/>
<path d="M12.0012 5.49707C13.6632 5.49707 15.3252 6.13207 16.5972 7.40307C17.2017 8.00628 17.6814 8.72281 18.0086 9.51163C18.3359 10.3004 18.5043 11.1461 18.5043 12.0001C18.5043 12.8541 18.3359 13.6997 18.0086 14.4885C17.6814 15.2773 17.2017 15.9939 16.5972 16.5971C15.994 17.2016 15.2775 17.6812 14.4886 18.0085C13.6998 18.3357 12.8542 18.5042 12.0002 18.5042C11.1462 18.5042 10.3006 18.3357 9.51175 18.0085C8.72293 17.6812 8.00641 17.2016 7.4032 16.5971C6.79866 15.9939 6.31904 15.2773 5.99179 14.4885C5.66454 13.6997 5.49609 12.8541 5.49609 12.0001C5.49609 11.1461 5.66454 10.3004 5.99179 9.51163C6.31904 8.72281 6.79866 8.00628 7.4032 7.40307C8.00622 6.79808 8.72287 6.31825 9.51196 5.99115C10.301 5.66405 11.147 5.49614 12.0012 5.49707ZM14.9612 9.99907C14.8665 10.0081 14.7764 10.0439 14.7012 10.1021L11.0472 12.8421L9.3542 11.1501C8.9872 10.7681 8.2642 11.4901 8.6472 11.8571L10.6472 13.8571C10.7339 13.9391 10.8463 13.9885 10.9653 13.9971C11.0843 14.0057 11.2026 13.9728 11.3002 13.9041L15.3002 10.9041C15.6362 10.6591 15.4292 10.0061 15.0132 10.0001C14.9962 9.99921 14.9792 9.99921 14.9622 10.0001L14.9612 9.99907Z" fill="white"/>
</svg>
