<svg width="25" height="25" viewBox="0 0 25 25" fill="none" xmlns="http://www.w3.org/2000/svg">
<path fill-rule="evenodd" clip-rule="evenodd" d="M12.0833 24.1667C18.757 24.1667 24.1667 18.757 24.1667 12.0833C24.1667 5.40971 18.757 0 12.0833 0C5.40971 0 0 5.40971 0 12.0833C0 18.757 5.40971 24.1667 12.0833 24.1667ZM16.356 7.81067C16.5829 7.58409 16.8905 7.45693 17.2111 7.45716C17.5318 7.45739 17.8392 7.58498 18.0658 7.81187C18.2924 8.03877 18.4195 8.34637 18.4193 8.66702C18.4191 8.98767 18.2915 9.29509 18.0646 9.52167L11.2339 16.3524L11.229 16.3572C11.1171 16.4698 10.984 16.5592 10.8374 16.6201C10.6908 16.6811 10.5335 16.7125 10.3747 16.7125C10.216 16.7125 10.0587 16.6811 9.91214 16.6201C9.76552 16.5592 9.63241 16.4698 9.52046 16.3572L9.51562 16.3524L6.10208 12.9388C5.98668 12.8274 5.89462 12.694 5.83129 12.5466C5.76797 12.3992 5.73463 12.2406 5.73324 12.0802C5.73184 11.9198 5.76242 11.7606 5.82317 11.6121C5.88393 11.4636 5.97365 11.3287 6.08711 11.2153C6.20056 11.1018 6.33547 11.0121 6.48397 10.9513C6.63247 10.8906 6.79158 10.86 6.95203 10.8614C7.11247 10.8628 7.27102 10.8961 7.41845 10.9595C7.56587 11.0228 7.6992 11.1148 7.81067 11.2302L10.3747 13.7931L16.356 7.81187V7.81067Z" fill="#016341"/>
</svg>
