<svg width="32" height="27" viewBox="0 0 32 27" fill="none" xmlns="http://www.w3.org/2000/svg">
<path d="M28 4.64062H7C5.61929 4.64062 4.5 5.58502 4.5 6.75V17.7188C4.5 18.8837 5.61929 19.8281 7 19.8281H28C29.3807 19.8281 30.5 18.8837 30.5 17.7188V6.75C30.5 5.58502 29.3807 4.64062 28 4.64062Z" fill="url(#paint0_linear_3_3)"/>
<path d="M25 6.32812H4.55C4.51803 6.46716 4.50129 6.60838 4.5 6.75V17.7188C4.5 18.2782 4.76339 18.8147 5.23223 19.2103C5.70107 19.6059 6.33696 19.8281 7 19.8281H28C28.1678 19.827 28.3352 19.8129 28.5 19.7859V9.28125C28.5 8.49803 28.1313 7.74689 27.4749 7.19308C26.8185 6.63926 25.9283 6.32813 25 6.32812Z" fill="#FF0F00"/>
<path d="M28 4.64062H24C24 4.77984 24 4.91906 24 5.0625C24 6.40516 24.6321 7.69283 25.7574 8.64223C26.8826 9.59163 28.4087 10.125 30 10.125C30.17 10.125 30.335 10.125 30.5 10.1039V6.75C30.5 6.19056 30.2366 5.65403 29.7678 5.25845C29.2989 4.86286 28.663 4.64063 28 4.64062Z" fill="#14141C"/>
<path d="M4.5 6.75V10.125C4.665 10.125 4.83 10.1461 5 10.1461C5.79004 10.1461 6.5723 10.0145 7.30189 9.75873C8.03148 9.50299 8.69402 9.1282 9.2515 8.65587C9.80898 8.18354 10.2504 7.62296 10.5505 7.00631C10.8505 6.38967 11.0033 5.72909 11 5.0625C11 4.91906 11 4.77984 10.975 4.64062H7C6.33696 4.64063 5.70107 4.86286 5.23223 5.25845C4.76339 5.65403 4.5 6.19056 4.5 6.75Z" fill="#14141C"/>
<path d="M30.5 14.3648C30.335 14.3648 30.17 14.3648 30 14.3648C28.413 14.3648 26.8907 14.8953 25.7662 15.8401C24.6417 16.785 24.0066 18.0672 24 19.4062C24 19.5497 24 19.6889 24 19.8281H28C28.663 19.8281 29.2989 19.6059 29.7678 19.2103C30.2366 18.8147 30.5 18.2782 30.5 17.7187V14.3648Z" fill="#14141C"/>
<path d="M28.5 14.5083C27.2128 14.7887 26.0724 15.4219 25.258 16.3084C24.4435 17.1949 24.001 18.2846 24 19.4063C24 19.5497 24 19.6889 24 19.8281H28C28.1678 19.827 28.3352 19.8129 28.5 19.7859V14.5083Z" fill="url(#paint1_linear_3_3)"/>
<path d="M28.5 9.96047V9.28125C28.5 8.49803 28.1313 7.74689 27.4749 7.19308C26.8185 6.63926 25.9283 6.32813 25 6.32812H24.195C24.4633 7.20257 25.0039 8.00052 25.7609 8.63923C26.5179 9.27793 27.4636 9.73412 28.5 9.96047Z" fill="url(#paint2_linear_3_3)"/>
<path d="M10.805 6.32812H4.55C4.51803 6.46716 4.50129 6.60838 4.5 6.75V10.125C4.665 10.125 4.83 10.1461 5 10.1461C6.33273 10.1441 7.62673 9.76769 8.67785 9.07636C9.72896 8.38504 10.4774 7.41811 10.805 6.32812Z" fill="url(#paint3_linear_3_3)"/>
<path d="M25 7.17188H4C2.61929 7.17188 1.5 8.11627 1.5 9.28125V20.25C1.5 21.415 2.61929 22.3594 4 22.3594H25C26.3807 22.3594 27.5 21.415 27.5 20.25V9.28125C27.5 8.11627 26.3807 7.17188 25 7.17188Z" fill="url(#paint4_linear_3_3)"/>
<path d="M25 7.17188H21C21 7.31109 21 7.45031 21 7.59375C21 8.93641 21.6321 10.2241 22.7574 11.1735C23.8826 12.1229 25.4087 12.6562 27 12.6562C27.17 12.6562 27.335 12.6563 27.5 12.6352V9.28125C27.5 8.72181 27.2366 8.18528 26.7678 7.7897C26.2989 7.39411 25.663 7.17188 25 7.17188Z" fill="#14141C"/>
<path d="M1.5 9.28125V12.6562C1.665 12.6562 1.83 12.6773 2 12.6773C2.79004 12.6773 3.5723 12.5457 4.30189 12.29C5.03148 12.0342 5.69402 11.6595 6.2515 11.1871C6.80898 10.7148 7.25042 10.1542 7.55047 9.53756C7.85053 8.92092 8.00329 8.26034 8 7.59375C8 7.45031 8 7.31109 7.975 7.17188H4C3.33696 7.17188 2.70107 7.39411 2.23223 7.7897C1.76339 8.18528 1.5 8.72181 1.5 9.28125Z" fill="#14141C"/>
<path d="M2 16.875C1.83 16.875 1.665 16.875 1.5 16.875V20.25C1.5 20.8094 1.76339 21.346 2.23223 21.7416C2.70107 22.1371 3.33696 22.3594 4 22.3594H8C8 22.2202 8.025 22.0809 8.025 21.9375C8.02501 21.2709 7.86899 20.6109 7.5659 19.9953C7.26281 19.3797 6.81861 18.8207 6.25881 18.3503C5.69901 17.8799 5.03462 17.5075 4.30378 17.2543C3.57294 17.0011 2.79003 16.8722 2 16.875Z" fill="#14141C"/>
<path d="M27.5 16.8961C27.335 16.8961 27.17 16.8961 27 16.8961C25.413 16.8961 23.8907 17.4265 22.7662 18.3714C21.6417 19.3162 21.0066 20.5985 21 21.9375C21 22.0809 21 22.2202 21 22.3594H25C25.663 22.3594 26.2989 22.1371 26.7678 21.7415C27.2366 21.346 27.5 20.8094 27.5 20.25V16.8961Z" fill="#14141C"/>
<path d="M15.1 14.3438H15V12.825H15.1C15.3383 12.8261 15.5664 12.9065 15.7349 13.0486C15.9034 13.1908 15.9987 13.3833 16 13.5844H17C17 13.3739 16.9509 13.1654 16.8554 12.9709C16.7599 12.7764 16.6199 12.5997 16.4435 12.4508C16.2671 12.3019 16.0576 12.1839 15.8271 12.1033C15.5966 12.0227 15.3495 11.9813 15.1 11.9813H15V11.0531H14V11.9813H13.9C13.3961 11.9813 12.9128 12.1502 12.5565 12.4508C12.2002 12.7514 12 13.1592 12 13.5844C12 14.0096 12.2002 14.4173 12.5565 14.718C12.9128 15.0186 13.3961 15.1875 13.9 15.1875H14V16.7063H13.9C13.6617 16.7051 13.4336 16.6248 13.2651 16.4826C13.0966 16.3404 13.0013 16.1479 13 15.9469H12C12 16.3721 12.2002 16.7798 12.5565 17.0805C12.9128 17.3811 13.3961 17.55 13.9 17.55H14V18.4781H15V17.55H15.1C15.6039 17.55 16.0872 17.3811 16.4435 17.0805C16.7998 16.7798 17 16.3721 17 15.9469C17 15.5217 16.7998 15.1139 16.4435 14.8133C16.0872 14.5127 15.6039 14.3438 15.1 14.3438ZM13.9 14.3438C13.6613 14.3438 13.4324 14.2638 13.2636 14.1213C13.0948 13.9789 13 13.7858 13 13.5844C13 13.383 13.0948 13.1898 13.2636 13.0474C13.4324 12.905 13.6613 12.825 13.9 12.825H14V14.3438H13.9ZM15.1 16.7063H15V15.1875H15.1C15.3387 15.1875 15.5676 15.2675 15.7364 15.4099C15.9052 15.5523 16 15.7455 16 15.9469C16 16.1483 15.9052 16.3414 15.7364 16.4838C15.5676 16.6263 15.3387 16.7063 15.1 16.7063Z" fill="white"/>
<defs>
<linearGradient id="paint0_linear_3_3" x1="17.5" y1="19.8281" x2="17.5" y2="4.64062" gradientUnits="userSpaceOnUse">
<stop stop-color="#5A0606"/>
<stop offset="1" stop-color="#E81615"/>
</linearGradient>
<linearGradient id="paint1_linear_3_3" x1="26.25" y1="19.8281" x2="26.25" y2="14.5083" gradientUnits="userSpaceOnUse">
<stop stop-color="#FF0F00"/>
<stop offset="1" stop-color="#5A0606"/>
</linearGradient>
<linearGradient id="paint2_linear_3_3" x1="26.35" y1="9.96047" x2="26.35" y2="6.32812" gradientUnits="userSpaceOnUse">
<stop stop-color="#FF0F00"/>
<stop offset="1" stop-color="#5A0606"/>
</linearGradient>
<linearGradient id="paint3_linear_3_3" x1="7.65" y1="10.125" x2="7.65" y2="6.32812" gradientUnits="userSpaceOnUse">
<stop stop-color="#FF0F00"/>
<stop offset="1" stop-color="#5A0606"/>
</linearGradient>
<linearGradient id="paint4_linear_3_3" x1="14.5" y1="22.3594" x2="14.5" y2="7.17188" gradientUnits="userSpaceOnUse">
<stop stop-color="#5A0606"/>
<stop offset="1" stop-color="#E81615"/>
</linearGradient>
</defs>
</svg>
