<svg width="30" height="30" viewBox="0 0 30 30" fill="none" xmlns="http://www.w3.org/2000/svg">
<circle cx="15" cy="15" r="15" fill="#FB8500"/>
<path d="M5.31857 15.9943L9.60668 18.7839V23.4461C9.58058 24.2849 10.6901 24.7531 11.2775 24.1354L13.8622 21.5604L17.478 23.9143C17.6412 24.0183 17.8239 24.0768 18.0132 24.0768C18.4179 24.0768 18.7964 23.8168 18.9335 23.4396L25.0621 6.88442C25.1078 6.75441 25.1274 6.61784 25.1078 6.48778C25.0817 5.81154 24.3311 5.38887 23.7176 5.66847L5.43605 14.2972C4.75728 14.5898 4.68549 15.6107 5.31857 15.9943ZM19.4491 9.84306L11.5452 17.7175L7.85097 15.3116L19.4491 9.84306Z" fill="black"/>
</svg>
