<svg width="28" height="28" viewBox="0 0 28 28" fill="none" xmlns="http://www.w3.org/2000/svg">
<circle cx="14" cy="14" r="14" fill="#207E1E"/>
<path d="M14.536 19.156C13.938 19.156 13.3833 19.0433 12.872 18.818C12.3607 18.584 11.9187 18.2763 11.546 17.895L12.196 17.141C12.4993 17.4617 12.8547 17.7217 13.262 17.921C13.678 18.1117 14.107 18.207 14.549 18.207C15.1123 18.207 15.55 18.0813 15.862 17.83C16.174 17.57 16.33 17.232 16.33 16.816C16.33 16.5213 16.265 16.2873 16.135 16.114C16.0137 15.9407 15.8447 15.7933 15.628 15.672C15.42 15.5507 15.1817 15.4293 14.913 15.308L13.691 14.775C13.4223 14.6623 13.1537 14.515 12.885 14.333C12.625 14.151 12.404 13.917 12.222 13.631C12.0487 13.345 11.962 12.994 11.962 12.578C11.962 12.1447 12.0747 11.759 12.3 11.421C12.534 11.0743 12.8547 10.8057 13.262 10.615C13.6693 10.4157 14.1287 10.316 14.64 10.316C15.1513 10.316 15.6237 10.4157 16.057 10.615C16.4903 10.8057 16.8587 11.057 17.162 11.369L16.577 12.071C16.317 11.8197 16.0267 11.6247 15.706 11.486C15.394 11.3387 15.0387 11.265 14.64 11.265C14.1633 11.265 13.7777 11.3777 13.483 11.603C13.197 11.8283 13.054 12.1317 13.054 12.513C13.054 12.7817 13.1233 13.007 13.262 13.189C13.4093 13.3623 13.5913 13.5053 13.808 13.618C14.0247 13.7307 14.2457 13.8347 14.471 13.93L15.68 14.45C16.0093 14.5887 16.304 14.7577 16.564 14.957C16.8327 15.1477 17.045 15.386 17.201 15.672C17.357 15.9493 17.435 16.3003 17.435 16.725C17.435 17.1757 17.318 17.5873 17.084 17.96C16.85 18.324 16.5163 18.6143 16.083 18.831C15.6497 19.0477 15.134 19.156 14.536 19.156Z" fill="#EAE9EC"/>
</svg>
